<?xml version="1.0" encoding="UTF-8" ?>
<!DOCTYPE svg PUBLIC "-//W3C//DTD SVG 1.1//EN" "http://www.w3.org/Graphics/SVG/1.1/DTD/svg11.dtd">
<svg width="336pt" height="357pt" viewBox="0 0 336 357" version="1.1" xmlns="http://www.w3.org/2000/svg">
<g id="#ffffffff">
<path fill="#ffffff" opacity="1.00" d=" M 119.48 0.79 C 137.33 15.53 152.90 33.15 165.16 52.81 C 176.55 71.61 184.26 94.08 180.14 116.22 C 177.89 129.54 171.03 141.57 162.59 151.94 C 147.39 147.77 134.25 137.34 125.43 124.42 C 113.94 107.65 109.88 87.01 109.43 66.99 C 109.37 44.58 113.27 22.28 119.48 0.79 Z" />
<path fill="#ffffff" opacity="1.00" d=" M 69.88 41.82 C 71.40 37.24 72.24 32.39 74.55 28.10 C 83.45 38.14 91.63 49.38 95.42 62.42 C 96.44 67.19 97.36 72.27 95.86 77.04 C 94.55 82.29 90.72 86.61 86.28 89.51 C 77.91 88.71 70.95 82.01 68.55 74.12 C 65.44 63.55 67.22 52.29 69.88 41.82 Z" />
<path fill="#ffffff" opacity="1.00" d=" M 233.70 52.71 C 242.37 44.64 252.22 38.01 262.04 31.44 C 264.59 49.58 264.19 68.22 260.15 86.12 C 256.64 100.93 249.42 115.69 236.76 124.74 C 229.06 130.38 219.73 133.42 210.33 134.65 C 202.84 121.88 201.71 105.88 206.33 91.92 C 211.32 76.48 221.81 63.47 233.70 52.71 Z" />
<path fill="#ffffff" opacity="1.00" d=" M 195.27 36.17 C 200.53 34.58 206.69 36.55 209.83 41.13 C 214.44 46.86 212.00 56.22 205.83 59.79 C 201.62 61.92 196.26 62.33 192.09 59.90 C 187.14 56.99 184.78 50.53 186.23 45.06 C 187.79 41.03 191.00 37.36 195.27 36.17 Z" />
<path fill="#ffffff" opacity="1.00" d=" M 277.57 73.47 C 275.65 69.85 277.57 64.34 281.96 63.83 C 286.22 62.67 290.61 66.65 289.96 70.97 C 289.78 74.39 286.42 76.27 283.47 77.05 C 281.33 76.29 278.63 75.75 277.57 73.47 Z" />
<path fill="#ffffff" opacity="1.00" d=" M 269.45 89.99 C 271.50 90.05 273.58 90.08 275.60 90.57 C 281.35 91.73 287.46 93.01 292.10 96.83 C 296.23 100.18 298.15 105.99 296.64 111.12 C 294.53 120.13 288.08 127.28 281.78 133.73 C 271.09 145.03 257.96 153.55 245.16 162.22 C 227.86 173.11 209.77 182.74 191.14 191.15 C 155.56 207.51 118.33 220.47 79.95 228.38 C 64.78 231.11 49.43 233.51 33.98 233.01 C 26.58 232.75 19.09 231.86 12.14 229.18 C 8.20 227.73 4.77 224.96 2.60 221.36 C 24.25 222.61 45.81 218.79 66.80 213.83 C 98.05 206.55 128.36 195.70 157.70 182.79 C 183.05 171.51 207.72 158.52 230.53 142.68 C 244.01 132.71 257.93 122.26 266.70 107.67 C 269.95 102.42 271.37 96.00 269.45 89.99 Z" />
<path fill="#ffffff" opacity="1.00" d=" M 5.90 93.45 C 15.40 93.22 25.50 92.15 34.33 96.46 C 40.92 99.32 46.14 105.79 46.52 113.09 C 46.46 114.66 44.50 114.67 43.43 115.23 C 36.81 117.66 29.42 115.92 23.59 112.28 C 16.21 107.60 10.91 100.46 5.90 93.45 Z" />
<path fill="#ffffff" opacity="1.00" d=" M 60.23 93.20 C 64.33 91.30 69.47 95.56 68.56 99.94 C 68.34 105.18 60.81 107.19 57.58 103.36 C 54.42 100.30 56.13 94.51 60.23 93.20 Z" />
<path fill="#ffffff" opacity="1.00" d=" M 189.11 98.16 C 191.76 97.54 194.48 97.14 196.96 95.97 C 195.73 100.67 195.82 105.53 195.17 110.30 C 193.08 110.72 191.05 111.34 189.02 111.97 C 189.23 107.37 189.33 102.76 189.11 98.16 Z" />
<path fill="#ffffff" opacity="1.00" d=" M 87.47 101.60 C 92.42 99.79 98.50 102.54 99.66 107.85 C 102.05 115.02 93.06 122.43 86.54 118.50 C 79.24 115.64 79.99 103.76 87.47 101.60 Z" />
<path fill="#ffffff" opacity="1.00" d=" M 312.85 116.89 C 318.44 124.12 322.07 132.53 325.12 141.09 C 333.45 162.27 336.86 185.38 334.50 208.04 C 332.95 221.74 329.32 235.21 323.87 247.87 C 311.59 276.60 289.70 300.45 264.27 318.22 C 243.62 332.19 220.76 343.02 196.63 349.40 C 160.65 359.36 121.25 359.71 86.22 345.90 C 59.10 335.60 35.66 316.21 20.14 291.74 C 13.39 281.02 7.97 269.49 3.65 257.59 C 1.84 252.37 0.39 246.97 0.32 241.41 C 2.95 246.62 8.56 249.22 13.95 250.58 C 28.70 254.18 44.06 253.36 59.02 251.78 C 85.83 248.95 112.21 242.94 137.99 235.15 C 167.44 225.89 195.68 213.13 223.21 199.24 C 238.75 191.55 253.61 182.61 268.14 173.17 C 271.77 184.77 274.17 196.77 274.68 208.94 C 275.53 232.84 267.24 256.43 254.05 276.16 C 243.86 291.43 231.71 305.31 218.60 318.12 C 244.95 301.05 269.30 279.70 285.53 252.52 C 298.85 230.69 304.89 204.50 301.96 179.05 C 301.06 169.48 298.32 160.25 295.83 151.02 C 300.79 145.02 306.76 139.49 309.97 132.19 C 312.60 127.52 313.43 122.18 312.85 116.89 Z" />
<path fill="#ffffff" opacity="1.00" d=" M 59.17 119.19 C 64.56 118.59 69.87 123.46 69.17 128.98 C 68.95 134.40 63.36 138.54 58.09 137.42 C 51.90 136.73 48.66 128.93 51.79 123.76 C 53.32 121.09 56.16 119.53 59.17 119.19 Z" />
<path fill="#ffffff" opacity="1.00" d=" M 74.65 144.59 C 86.49 137.30 98.93 131.04 111.49 125.11 C 114.26 130.76 118.84 135.18 122.63 140.11 C 103.70 150.70 85.02 162.20 68.95 176.88 C 61.07 184.41 52.47 192.88 50.83 204.18 C 39.66 206.19 28.33 207.81 16.96 207.30 C 13.41 197.75 20.30 188.95 26.02 182.01 C 39.82 166.72 57.09 155.11 74.65 144.59 Z" />
<path fill="#ffffff" opacity="1.00" d=" M 186.46 133.66 C 187.74 132.21 189.71 131.97 191.48 131.51 C 196.59 131.56 199.99 138.53 196.37 142.32 C 194.64 145.06 190.82 145.23 188.11 144.02 C 184.27 142.29 183.50 136.54 186.46 133.66 Z" />
<path fill="#ffffff" opacity="1.00" d=" M 122.48 154.61 C 128.42 151.72 137.48 154.75 138.17 161.96 C 139.13 169.62 131.18 175.83 123.92 174.68 C 119.37 174.40 115.28 170.70 114.92 166.10 C 114.37 161.09 118.03 156.47 122.48 154.61 Z" />
<path fill="#ffffff" opacity="1.00" d=" M 91.50 172.79 C 96.37 170.42 104.29 172.74 104.21 179.02 C 104.71 186.86 94.18 191.19 88.23 186.88 C 85.09 184.94 84.84 180.46 86.37 177.42 C 87.66 175.50 89.45 173.88 91.50 172.79 Z" />
</g>
</svg>
