<?xml version="1.0" encoding="UTF-8" standalone="no"?>
<!-- Created with Inkscape (http://www.inkscape.org/) -->

<svg
   version="1.1"
   id="svg1392"
   xml:space="preserve"
   width="682.66669"
   height="682.66669"
   viewBox="0 0 682.66669 682.66669"
   xmlns="http://www.w3.org/2000/svg"
   xmlns:svg="http://www.w3.org/2000/svg"><defs
     id="defs1396"><clipPath
       clipPathUnits="userSpaceOnUse"
       id="clipPath1406"><path
         d="M 0,512 H 512 V 0 H 0 Z"
         id="path1404" /></clipPath></defs><g
     id="g1398"
     transform="matrix(1.3333333,0,0,-1.3333333,0,682.66667)"><g
       id="g1400"><g
         id="g1402"
         clip-path="url(#clipPath1406)"><g
           id="g1408"
           transform="translate(492.9313,229.1985)"><path
             d="m 0,0 c 0,-142.919 -74.662,-221.698 -166.764,-221.698 -92.101,0 -166.764,78.779 -166.764,221.698 0,142.919 74.663,275.302 166.764,275.302 C -74.662,275.302 0,142.919 0,0"
             style="fill:#ffe1d9;fill-opacity:1;fill-rule:nonzero;stroke:none"
             id="path1410" /></g><g
           id="g1412"
           transform="translate(352.5974,229.1985)"><path
             d="m 0,0 c 0,-142.919 -74.663,-221.698 -166.765,-221.698 -92.101,0 -166.764,78.779 -166.764,221.698 0,142.919 74.663,275.302 166.764,275.302 C -74.663,275.302 0,142.919 0,0"
             style="fill:#f2f5fb;fill-opacity:1;fill-rule:nonzero;stroke:none"
             id="path1414" /></g><g
           id="g1416"
           transform="translate(284.3278,170.6819)"><path
             d="m 0,0 c 0,-54.397 -44.098,-98.495 -98.495,-98.495 -54.398,0 -98.495,44.098 -98.495,98.495 0,54.397 44.097,98.495 98.495,98.495 C -44.098,98.495 0,54.397 0,0"
             style="fill:#ffac7b;fill-opacity:1;fill-rule:nonzero;stroke:none"
             id="path1418" /></g><g
           id="g1420"
           transform="translate(326.1677,504.5)"><path
             d="m 0,0 c -5.058,0 -10.058,-0.422 -15,-1.2 85.071,-13.392 151.764,-139.029 151.764,-274.102 0,-135.072 -66.693,-212.839 -151.764,-220.974 4.942,-0.472 9.942,-0.724 15,-0.724 92.102,0 166.764,78.779 166.764,221.698 C 166.764,-132.382 92.102,0 0,0"
             style="fill:#f7cec3;fill-opacity:1;fill-rule:nonzero;stroke:none"
             id="path1422" /></g><g
           id="g1424"
           transform="translate(185.8327,504.5)"><path
             d="m 0,0 c -5.057,0 -10.058,-0.422 -15,-1.2 85.071,-13.392 151.765,-139.029 151.765,-274.102 0,-135.072 -66.694,-212.839 -151.765,-220.974 4.942,-0.472 9.943,-0.724 15,-0.724 92.102,0 166.765,78.779 166.765,221.698 C 166.765,-132.382 92.102,0 0,0"
             style="fill:#e6e8f0;fill-opacity:1;fill-rule:nonzero;stroke:none"
             id="path1426" /></g><g
           id="g1428"
           transform="translate(185.8327,269.1768)"><path
             d="m 0,0 c -5.1,0 -10.109,-0.387 -15,-1.135 47.277,-7.224 83.494,-48.062 83.494,-97.36 0,-49.297 -36.217,-90.136 -83.494,-97.36 4.891,-0.747 9.9,-1.135 15,-1.135 54.397,0 98.494,44.098 98.494,98.495 C 98.494,-44.098 54.397,0 0,0"
             style="fill:#fa955a;fill-opacity:1;fill-rule:nonzero;stroke:none"
             id="path1430" /></g><g
           id="g1432"
           transform="translate(457.3796,83.6887)"><path
             d="m 0,0 c -30.531,-49.849 -77.957,-76.189 -131.212,-76.189 -25.066,0 -48.841,5.835 -70.17,17.21"
             style="fill:none;stroke:#000000;stroke-width:15;stroke-linecap:round;stroke-linejoin:round;stroke-miterlimit:10;stroke-dasharray:none;stroke-opacity:1"
             id="path1434" /></g><g
           id="g1436"
           transform="translate(258.7829,479.7275)"><path
             d="m 0,0 c 20.606,15.798 43.404,24.772 67.385,24.772 92.101,0 166.763,-132.382 166.763,-275.301 0,-45.21 -7.47,-84.001 -20.601,-115.911"
             style="fill:none;stroke:#000000;stroke-width:15;stroke-linecap:round;stroke-linejoin:round;stroke-miterlimit:10;stroke-dasharray:none;stroke-opacity:1"
             id="path1438" /></g><g
           id="g1440"
           transform="translate(68.656,421.6921)"><path
             d="m 0,0 c 30.118,50.252 71.503,82.808 117.177,82.808 92.101,0 166.764,-132.382 166.764,-275.302 0,-142.919 -74.663,-221.698 -166.764,-221.698 -92.102,0 -166.765,78.779 -166.765,221.698 0,60.078 13.193,118.293 35.329,165.596"
             style="fill:none;stroke:#000000;stroke-width:15;stroke-linecap:round;stroke-linejoin:round;stroke-miterlimit:10;stroke-dasharray:none;stroke-opacity:1"
             id="path1442" /></g><g
           id="g1444"
           transform="translate(284.3278,170.6819)"><path
             d="m 0,0 c 0,-54.397 -44.098,-98.495 -98.495,-98.495 -54.398,0 -98.495,44.098 -98.495,98.495 0,54.397 44.097,98.495 98.495,98.495 C -44.098,98.495 0,54.397 0,0 Z"
             style="fill:none;stroke:#000000;stroke-width:15;stroke-linecap:round;stroke-linejoin:round;stroke-miterlimit:10;stroke-dasharray:none;stroke-opacity:1"
             id="path1446" /></g></g></g></g></svg>
