<svg id="Capa_1" enable-background="new 0 0 511.995 511.995" height="512" viewBox="0 0 511.995 511.995" width="512" xmlns="http://www.w3.org/2000/svg"><g><g><path d="m366.178 336.489c-11.02 18.764-35.164 25.042-53.927 14.022-18.764-11.02-25.042-35.164-14.022-53.928 7.69-13.094 39.276-28.99 57.663-37.402 6.638-3.036 14.283 1.453 14.864 8.729 1.609 20.157 3.111 55.485-4.578 68.579z" fill="#d88a55"/></g><g><path d="m349.109 418.169c15.387 15.387 15.387 40.334 0 55.721s-40.334 15.387-55.721 0c-10.737-10.737-18.174-45.307-21.688-65.219-1.268-7.188 5.001-13.457 12.189-12.189 19.913 3.513 54.483 10.95 65.22 21.687z" fill="#f7b565"/></g><g><path d="m343.405 202.919c-1.822 21.684-20.877 37.785-42.561 35.963s-37.785-20.877-35.963-42.561c1.271-15.132 22.877-43.124 35.819-58.66 4.672-5.608 13.507-4.866 17.177 1.443 10.168 17.478 26.8 48.684 25.528 63.815z" fill="#f7b565"/></g><g><path d="m492.955 294.351c15.387 15.387 15.387 40.334 0 55.721s-40.334 15.387-55.721 0c-10.737-10.737-18.174-45.307-21.688-65.219-1.269-7.188 5.001-13.457 12.189-12.189 19.913 3.513 54.483 10.949 65.22 21.687z" fill="#f7b565"/></g><g><path d="m484.834 433.206c10.105 19.271 2.675 43.086-16.597 53.191-19.271 10.105-43.086 2.675-53.192-16.597-7.052-13.448-3.854-48.664-1.277-68.719.93-7.24 8.782-11.357 15.266-8.005 17.962 9.286 48.748 26.682 55.8 40.13z" fill="#d88a55"/></g><g><path d="m465.973 216.073c-15.387 15.387-40.334 15.387-55.721 0s-15.387-40.334 0-55.721c10.737-10.737 45.307-18.174 65.219-21.688 7.188-1.268 13.457 5.001 12.189 12.189-3.513 19.912-10.95 54.482-21.687 65.22z" fill="#d88a55"/></g><g><path d="m238.375 333.105c15.363-15.411 15.323-40.358-.088-55.721s-40.358-15.323-55.721.088c-10.72 10.754-18.102 45.336-21.585 65.253-1.257 7.19 5.022 13.449 12.208 12.17 19.907-3.545 54.466-11.036 65.186-21.79z" fill="#f7b565"/></g><g><path d="m150.735 427.218c-15.387 15.387-15.387 40.334 0 55.721s40.334 15.387 55.721 0c10.737-10.737 18.174-45.307 21.688-65.219 1.269-7.188-5.001-13.457-12.189-12.189-19.912 3.513-54.482 10.95-65.22 21.687z" fill="#d88a55"/></g><g><path d="m152.998 157.372c-15.387 15.387-15.387 40.334 0 55.721s40.334 15.387 55.721 0c10.737-10.737 18.174-45.307 21.688-65.22 1.269-7.188-5.001-13.457-12.189-12.189-19.913 3.514-54.483 10.951-65.22 21.688z" fill="#d88a55"/></g><g><path d="m36.93 296.613c-15.387 15.387-15.387 40.334 0 55.721s40.334 15.387 55.721 0c10.737-10.737 18.174-45.307 21.688-65.219 1.268-7.188-5.001-13.457-12.189-12.189-19.913 3.513-54.483 10.95-65.22 21.687z" fill="#d88a55"/></g><g><path d="m366.178 88.045c-11.02 18.764-35.164 25.042-53.927 14.022-18.764-11.02-25.042-35.164-14.022-53.927 7.69-13.094 39.276-28.99 57.663-37.402 6.638-3.036 14.283 1.453 14.864 8.729 1.609 20.155 3.111 55.484-4.578 68.578z" fill="#d88a55"/></g><g><path d="m492.955 45.906c15.387 15.387 15.387 40.334 0 55.721s-40.334 15.387-55.721 0c-10.737-10.737-18.174-45.307-21.688-65.219-1.269-7.188 5.001-13.457 12.189-12.189 19.913 3.513 54.483 10.95 65.22 21.687z" fill="#f7b565"/></g><g><path d="m238.375 84.66c15.363-15.411 15.323-40.358-.088-55.721s-40.358-15.323-55.721.088c-10.72 10.754-18.102 45.336-21.585 65.254-1.257 7.19 5.022 13.449 12.208 12.17 19.907-3.546 54.466-11.037 65.186-21.791z" fill="#f7b565"/></g><g><path d="m36.93 48.168c-15.387 15.387-15.387 40.334 0 55.721s40.334 15.387 55.721 0c10.737-10.737 18.174-45.307 21.688-65.219 1.268-7.188-5.001-13.457-12.189-12.189-19.913 3.514-54.483 10.95-65.22 21.687z" fill="#d88a55"/></g><g><path d="m17.273 444.517c-10.105 19.271-2.675 43.086 16.597 53.191 19.271 10.105 43.086 2.675 53.192-16.597 7.052-13.448 3.854-48.664 1.277-68.719-.93-7.24-8.782-11.357-15.266-8.005-17.962 9.287-48.749 26.682-55.8 40.13z" fill="#f7b565"/></g><g><path d="m29.347 226.253c15.387 15.387 40.334 15.387 55.721 0s15.387-40.334 0-55.721c-10.737-10.737-45.307-18.174-65.219-21.688-7.188-1.268-13.457 5.001-12.189 12.189 3.513 19.913 10.95 54.483 21.687 65.22z" fill="#f7b565"/></g><g><path d="m370.755 267.911c-.581-7.276-8.226-11.766-14.864-8.729-4.501 2.059-9.794 4.569-15.333 7.374.092.44.16.892.197 1.356 1.61 20.156 3.112 55.484-4.577 68.578-4.533 7.718-11.288 13.318-18.974 16.476 17.87 7.384 38.903.673 48.974-16.476 7.689-13.095 6.187-48.423 4.577-68.579z" fill="#ae6834"/></g><g><path d="m349.109 418.169c-10.737-10.737-45.307-18.174-65.219-21.688-4.105-.725-7.904 1.014-10.176 3.974 17.945 4.074 37.735 10.053 45.396 17.714 15.387 15.387 15.387 40.334 0 55.721-3.799 3.799-8.183 6.657-12.86 8.58 14.265 5.865 31.273 3.008 42.86-8.58 15.386-15.387 15.386-40.334-.001-55.721z" fill="#d98f36"/></g><g><path d="m317.877 139.105c-3.67-6.309-12.505-7.051-17.177-1.443-2.432 2.919-5.169 6.278-8.02 9.908 9.85 17.805 21.81 42.431 20.725 55.349-1.279 15.225-11.059 27.687-24.274 33.136 3.645 1.501 7.576 2.48 11.713 2.827 21.684 1.822 40.739-14.279 42.561-35.963 1.272-15.131-15.36-46.337-25.528-63.814z" fill="#d98f36"/></g><g><path d="m492.955 294.351c-10.737-10.737-45.307-18.174-65.22-21.688-4.105-.724-7.903 1.014-10.176 3.974 17.945 4.074 37.735 10.053 45.396 17.714 15.387 15.387 15.387 40.334 0 55.721-3.799 3.799-8.183 6.657-12.86 8.58 14.265 5.865 31.273 3.008 42.86-8.58 15.387-15.387 15.387-40.334 0-55.721z" fill="#d98f36"/></g><g><path d="m484.834 433.206c-7.052-13.448-37.838-30.844-55.8-40.129-6.475-3.347-14.313.755-15.261 7.977 16.706 9.481 35.711 21.951 41.06 32.153 10.105 19.271 2.675 43.086-16.597 53.191-1.085.569-2.187 1.075-3.298 1.534 10.404 4.278 22.556 4.099 33.298-1.534 19.273-10.106 26.704-33.92 16.598-53.192z" fill="#ae6834"/></g><g><path d="m475.472 138.665c-5.706 1.007-12.616 2.337-19.824 3.974 1.707 2.223 2.557 5.132 2.013 8.215-3.514 19.912-10.95 54.482-21.688 65.219-3.799 3.799-8.183 6.656-12.86 8.58 14.265 5.865 31.273 3.008 42.86-8.58 10.737-10.737 18.174-45.307 21.688-65.219 1.268-7.189-5.001-13.458-12.189-12.189z" fill="#ae6834"/></g><g><path d="m238.287 277.384c-11.591-11.554-28.575-14.394-42.819-8.536 4.66 1.915 9.029 4.757 12.819 8.536 15.411 15.363 15.45 40.31.088 55.721-7.653 7.677-27.451 13.689-45.396 17.792 2.274 2.98 6.089 4.732 10.211 3.998 19.906-3.545 54.465-11.036 65.185-21.79 15.363-15.411 15.323-40.358-.088-55.721z" fill="#d98f36"/></g><g><path d="m215.955 405.531c-5.706 1.007-12.616 2.337-19.824 3.974 1.707 2.223 2.556 5.132 2.012 8.215-3.514 19.912-10.95 54.482-21.688 65.22-3.799 3.799-8.183 6.656-12.86 8.58 14.265 5.865 31.273 3.008 42.86-8.58 10.737-10.737 18.174-45.308 21.688-65.22 1.269-7.189-5-13.458-12.188-12.189z" fill="#ae6834"/></g><g><path d="m218.217 135.684c-5.706 1.007-12.617 2.337-19.824 3.974 1.707 2.223 2.557 5.132 2.012 8.215-3.514 19.912-10.95 54.482-21.688 65.22-3.799 3.799-8.183 6.657-12.86 8.58 14.265 5.865 31.273 3.008 42.86-8.58 10.737-10.737 18.174-45.307 21.688-65.22 1.269-7.188-5-13.457-12.188-12.189z" fill="#ae6834"/></g><g><path d="m102.149 274.925c-5.706 1.007-12.616 2.337-19.824 3.974 1.707 2.223 2.557 5.132 2.013 8.215-3.514 19.912-10.95 54.482-21.688 65.219-3.799 3.799-8.183 6.657-12.86 8.58 14.265 5.865 31.273 3.008 42.86-8.58 10.737-10.737 18.174-45.307 21.688-65.219 1.269-7.188-5-13.457-12.189-12.189z" fill="#ae6834"/></g><g><path d="m370.755 19.466c-.581-7.276-8.226-11.766-14.864-8.729-4.501 2.059-9.794 4.569-15.333 7.374.092.44.16.892.197 1.355 1.61 20.156 3.112 55.484-4.577 68.578-4.533 7.718-11.288 13.318-18.974 16.476 17.87 7.384 38.903.673 48.974-16.476 7.689-13.093 6.187-48.422 4.577-68.578z" fill="#ae6834"/></g><g><path d="m492.955 45.906c-10.737-10.737-45.307-18.174-65.22-21.687-4.105-.724-7.903 1.014-10.176 3.974 17.945 4.074 37.735 10.053 45.396 17.714 15.387 15.387 15.387 40.334 0 55.721-3.799 3.799-8.183 6.657-12.86 8.58 14.265 5.865 31.273 3.008 42.86-8.58 15.387-15.388 15.387-40.335 0-55.722z" fill="#d98f36"/></g><g><path d="m238.287 28.939c-11.591-11.554-28.575-14.394-42.819-8.536 4.66 1.916 9.029 4.757 12.819 8.536 15.411 15.363 15.45 40.31.088 55.721-7.653 7.677-27.451 13.689-45.396 17.792 2.274 2.98 6.089 4.732 10.211 3.998 19.906-3.545 54.465-11.036 65.185-21.79 15.363-15.411 15.323-40.358-.088-55.721z" fill="#d98f36"/></g><g><path d="m102.149 26.481c-5.706 1.007-12.616 2.337-19.824 3.974 1.707 2.223 2.557 5.132 2.013 8.215-3.514 19.912-10.95 54.482-21.688 65.219-3.799 3.799-8.183 6.657-12.86 8.58 14.265 5.865 31.273 3.008 42.86-8.58 10.737-10.737 18.174-45.307 21.688-65.219 1.269-7.189-5-13.458-12.189-12.189z" fill="#ae6834"/></g><g><path d="m88.338 412.393c-.93-7.24-8.782-11.357-15.266-8.005-4.336 2.242-9.423 4.959-14.739 7.977.001.01.004.019.006.028 2.577 20.055 5.775 55.271-1.277 68.719-4.473 8.529-11.633 14.734-19.894 18.13 18.614 7.689 40.357.056 49.894-18.13 7.051-13.448 3.853-48.664 1.276-68.719z" fill="#d98f36"/></g><g><path d="m85.068 170.532c-10.737-10.737-45.307-18.174-65.219-21.688-4.105-.725-7.903 1.014-10.176 3.974 17.945 4.074 37.735 10.053 45.396 17.714 15.387 15.387 15.387 40.334 0 55.721-3.8 3.799-8.183 6.657-12.86 8.58 14.265 5.865 31.273 3.008 42.86-8.58 15.386-15.387 15.386-40.334-.001-55.721z" fill="#d98f36"/></g><g><path d="m332.123 363.457c-8.245 0-16.374-2.192-23.671-6.478-10.802-6.344-18.487-16.515-21.64-28.639-3.152-12.125-1.395-24.751 4.949-35.553 6.668-11.353 27.195-24.954 61.01-40.424 5.341-2.444 11.554-2.126 16.622.851 5.067 2.976 8.371 8.248 8.838 14.102 2.962 37.067 1.082 61.618-5.586 72.973-6.344 10.802-16.515 18.488-28.64 21.64-3.934 1.022-7.922 1.528-11.882 1.528zm28.142-97.738c-.38 0-.804.077-1.254.283-29.218 13.367-49.523 26.219-54.316 34.38-4.315 7.348-5.511 15.936-3.366 24.182 2.144 8.247 7.372 15.165 14.719 19.48 7.348 4.315 15.937 5.511 24.183 3.366 8.247-2.144 15.165-7.372 19.48-14.719 4.793-8.162 6.127-32.155 3.568-64.183-.109-1.362-.976-2.064-1.482-2.362-.324-.189-.863-.427-1.532-.427zm5.913 70.77h.01z"/></g><g><path d="m321.249 492.93c-12.528 0-24.305-4.879-33.164-13.737-9.311-9.311-17.308-32.599-23.77-69.219-1.021-5.783.851-11.717 5.005-15.872 4.155-4.155 10.085-6.028 15.873-5.005 36.62 6.462 59.909 14.459 69.219 23.77 18.287 18.286 18.287 48.04 0 66.327-8.857 8.857-20.635 13.736-33.163 13.736zm-39.221-89.112c-1.038 0-1.746.535-2.101.89-.416.416-1.078 1.314-.841 2.659 5.583 31.641 12.913 54.527 19.605 61.219 6.025 6.025 14.036 9.343 22.557 9.343s16.532-3.318 22.557-9.343c12.438-12.438 12.438-32.676 0-45.114-6.693-6.693-29.579-14.021-61.22-19.605-.195-.034-.381-.049-.557-.049z"/></g><g><path d="m304.178 246.522c-1.312 0-2.631-.055-3.961-.167-25.77-2.165-44.974-24.892-42.809-50.663 1.103-13.121 13.729-34.26 37.53-62.832 3.759-4.513 9.5-6.911 15.355-6.421 5.855.492 11.114 3.817 14.067 8.893 18.699 32.141 27.622 55.091 26.52 68.213-2.054 24.442-22.605 42.977-46.702 42.977zm4.592-105.145c-.618 0-1.552.178-2.307 1.085-20.565 24.687-33.315 45.056-34.108 54.487-.713 8.491 1.922 16.752 7.422 23.26s13.205 10.486 21.696 11.199c17.526 1.474 32.986-11.589 34.46-29.118v.001c.792-9.432-8.381-31.643-24.538-59.415-.686-1.18-1.772-1.439-2.357-1.488-.082-.006-.171-.011-.268-.011zm34.636 61.542h.01z"/></g><g><path d="m465.095 369.112c-12.527 0-24.305-4.879-33.164-13.737-9.31-9.31-17.307-32.599-23.77-69.22-1.021-5.784.851-11.717 5.006-15.872s10.09-6.027 15.872-5.006c36.621 6.463 59.909 14.46 69.219 23.77 8.858 8.858 13.737 20.636 13.737 33.163 0 12.528-4.879 24.306-13.737 33.164-8.858 8.859-20.636 13.738-33.163 13.738zm-39.221-89.113c-1.038 0-1.746.535-2.101.891-.415.416-1.078 1.314-.841 2.659 5.585 31.642 12.914 54.528 19.605 61.219 6.025 6.025 14.037 9.343 22.557 9.343 8.521 0 16.532-3.318 22.557-9.343s9.344-14.036 9.344-22.557-3.318-16.532-9.344-22.557c-6.692-6.692-29.578-14.021-61.219-19.605-.195-.035-.381-.05-.558-.05z"/></g><g><path d="m449.996 498.427c-4.696 0-9.415-.713-14.025-2.152-11.959-3.731-21.749-11.896-27.566-22.991-6.115-11.661-6.813-36.275-2.074-73.158.748-5.825 4.302-10.932 9.506-13.661s11.424-2.748 16.643-.051c33.034 17.077 52.883 31.648 58.998 43.309 5.818 11.095 6.967 23.791 3.235 35.75-3.731 11.959-11.897 21.749-22.991 27.567-6.818 3.574-14.242 5.386-21.726 5.387zm-25.781-99.033c-.607 0-1.104.194-1.413.356-.521.273-1.42.933-1.594 2.288-4.095 31.868-3.915 55.898.48 64.28 3.957 7.546 10.616 13.1 18.75 15.638s16.771 1.757 24.316-2.201c7.546-3.957 13.1-10.616 15.638-18.75s1.756-16.77-2.201-24.316c-4.395-8.382-24.06-22.195-52.602-36.95-.492-.254-.958-.345-1.374-.345z"/></g><g><path d="m438.113 235.091c-12.01 0-24.021-4.572-33.164-13.715-18.287-18.286-18.287-48.04 0-66.327 9.31-9.31 32.599-17.308 69.219-23.77 5.784-1.02 11.717.851 15.873 5.006 4.155 4.155 6.026 10.088 5.005 15.872-6.462 36.62-14.459 59.909-23.77 69.219-9.143 9.143-21.153 13.715-33.163 13.715zm39.22-89.091c-.176 0-.363.015-.558.05-31.642 5.584-54.527 12.913-61.219 19.605-12.438 12.438-12.438 32.676 0 45.114s32.676 12.438 45.114 0c6.692-6.693 14.022-29.578 19.605-61.219.237-1.345-.425-2.243-.84-2.659-.356-.355-1.064-.891-2.102-.891z"/></g><g><path d="m171.352 362.557c-4.726 0-9.321-1.863-12.727-5.259-4.162-4.148-6.043-10.079-5.032-15.865 1.061-6.064 2.214-11.967 3.428-17.546.881-4.048 4.877-6.615 8.924-5.733 4.047.881 6.614 4.876 5.733 8.923-1.171 5.378-2.284 11.077-3.309 16.939-.235 1.345.429 2.242.845 2.658.417.415 1.313 1.076 2.66.836 31.633-5.633 54.507-12.998 61.189-19.701 6.016-6.035 9.321-14.051 9.308-22.572s-3.344-16.526-9.379-22.542c-6.022-6.003-14.019-9.308-22.52-9.308-.017 0-.034 0-.052 0-8.521.013-16.526 3.344-22.542 9.379-1.651 1.657-4.295 5.37-7.508 13.649-1.498 3.861-5.843 5.777-9.706 4.278-3.861-1.499-5.777-5.844-4.278-9.706 3.382-8.714 6.938-14.867 10.869-18.811 18.257-18.315 48.012-18.362 66.327-.104 8.873 8.844 13.77 20.614 13.789 33.142.02 12.527-4.84 24.313-13.685 33.185-9.296 9.325-32.572 17.359-69.182 23.879-1.049.188-2.103.279-3.152.279z"/></g><g><path d="m178.596 501.957c-12.01 0-24.02-4.571-33.164-13.715-18.287-18.287-18.287-48.041 0-66.327 9.311-9.311 32.6-17.308 69.22-23.77 5.782-1.021 11.717.851 15.872 5.006s6.026 10.089 5.005 15.873c-6.462 36.62-14.459 59.908-23.77 69.219-9.143 9.142-21.153 13.714-33.163 13.714zm39.22-89.09c-.176 0-.362.015-.558.05-31.642 5.583-54.527 12.912-61.22 19.605-12.438 12.438-12.438 32.676 0 45.114s32.677 12.438 45.114 0c6.692-6.693 14.021-29.578 19.605-61.219.237-1.345-.425-2.243-.841-2.659-.354-.356-1.062-.891-2.1-.891z"/></g><g><path d="m180.858 232.133c-12.527 0-24.305-4.879-33.164-13.737-18.287-18.287-18.287-48.041 0-66.327 9.311-9.31 32.6-17.308 69.22-23.77 5.787-1.019 11.717.851 15.872 5.006s6.026 10.089 5.005 15.872c-6.462 36.62-14.459 59.909-23.77 69.219-8.858 8.858-20.635 13.737-33.163 13.737zm-22.557-69.458c-12.438 12.438-12.438 32.676 0 45.114 6.025 6.025 14.037 9.343 22.557 9.343 8.521 0 16.532-3.318 22.557-9.343 6.692-6.693 14.021-29.578 19.605-61.22.237-1.345-.425-2.243-.841-2.659-.415-.416-1.317-1.079-2.659-.841-31.641 5.585-54.527 12.914-61.219 19.606z"/></g><g><path d="m64.79 371.352c-12.01 0-24.02-4.572-33.164-13.715-18.286-18.286-18.286-48.041 0-66.327 9.311-9.311 32.599-17.308 69.219-23.77 5.783-1.02 11.717.851 15.872 5.006s6.026 10.089 5.005 15.872c-6.462 36.62-14.459 59.908-23.77 69.219-9.141 9.143-21.151 13.715-33.162 13.715zm-22.557-69.436c-12.437 12.438-12.437 32.676 0 45.114 12.438 12.438 32.676 12.438 45.114 0 6.692-6.693 14.022-29.578 19.605-61.22.237-1.345-.425-2.243-.841-2.659s-1.315-1.079-2.659-.841c-31.641 5.585-54.526 12.914-61.219 19.606z"/></g><g><path d="m332.123 115.012c-8.245 0-16.374-2.192-23.671-6.478-22.3-13.096-29.788-41.893-16.691-64.193 6.668-11.354 27.195-24.954 61.01-40.424 5.341-2.444 11.554-2.125 16.622.851 5.067 2.976 8.371 8.247 8.838 14.102 2.962 37.067 1.082 61.619-5.586 72.973-6.344 10.803-16.515 18.488-28.64 21.64-3.934 1.023-7.922 1.529-11.882 1.529zm28.142-97.737c-.381 0-.804.077-1.254.283-29.218 13.367-49.523 26.219-54.316 34.38-8.908 15.167-3.815 34.754 11.353 43.662 7.347 4.314 15.936 5.511 24.182 3.366 8.247-2.144 15.165-7.372 19.48-14.719 4.793-8.162 6.127-32.155 3.568-64.183-.109-1.361-.976-2.064-1.482-2.362-.323-.19-.862-.427-1.531-.427zm5.913 70.77h.01z"/></g><g><path d="m465.095 120.645c-12.01 0-24.02-4.571-33.164-13.715-4.265-4.265-8.111-11.156-11.759-21.066-1.431-3.887.56-8.198 4.448-9.629 3.889-1.432 8.198.561 9.629 4.448 3.539 9.616 6.461 13.813 8.289 15.641 12.439 12.438 32.677 12.437 45.114 0 6.025-6.025 9.344-14.036 9.344-22.557s-3.318-16.532-9.344-22.557c-6.693-6.693-29.579-14.021-61.219-19.605-1.346-.238-2.243.425-2.659.841-.415.416-1.078 1.314-.841 2.659.921 5.219 1.916 10.327 2.956 15.182.868 4.05-1.712 8.037-5.762 8.905s-8.037-1.712-8.905-5.762c-1.078-5.032-2.108-10.32-3.061-15.718-1.021-5.784.851-11.718 5.006-15.872 4.155-4.155 10.09-6.026 15.872-5.006 36.62 6.462 59.909 14.46 69.219 23.77 8.858 8.858 13.737 20.636 13.737 33.164s-4.879 24.305-13.737 33.164c-9.143 9.141-21.153 13.713-33.163 13.713z"/></g><g><path d="m171.353 114.113c-4.727 0-9.321-1.864-12.728-5.259-4.162-4.148-6.042-10.079-5.031-15.864 6.405-36.63 14.365-59.931 23.662-69.257 18.257-18.315 48.012-18.362 66.327-.104 8.873 8.844 13.77 20.615 13.789 33.142.02 12.528-4.84 24.313-13.685 33.185-9.295 9.325-32.571 17.359-69.182 23.879-1.05.186-2.104.278-3.152.278zm39.119-89.155c-8.186 0-16.371 3.122-22.593 9.364-6.682 6.703-13.975 29.601-19.509 61.251-.235 1.345.429 2.243.845 2.657.417.415 1.319 1.075 2.66.836 31.633-5.633 54.507-12.998 61.188-19.701 6.016-6.035 9.321-14.051 9.308-22.572s-3.344-16.527-9.379-22.542c-6.215-6.196-14.369-9.293-22.52-9.293z"/></g><g><path d="m64.79 122.929c-12.528 0-24.306-4.879-33.164-13.737-18.287-18.286-18.287-48.041 0-66.327 9.31-9.31 32.599-17.308 69.219-23.77 5.783-1.02 11.717.851 15.872 5.006s6.026 10.088 5.005 15.872c-6.462 36.62-14.459 59.909-23.77 69.219-8.856 8.858-20.634 13.737-33.162 13.737zm-22.557-69.458c-12.438 12.438-12.438 32.676 0 45.114 6.025 6.025 14.036 9.343 22.557 9.343s16.532-3.318 22.557-9.343c6.692-6.693 14.022-29.578 19.605-61.22.237-1.345-.425-2.243-.84-2.659-.416-.416-1.315-1.081-2.66-.841-31.641 5.585-54.527 12.915-61.219 19.606z"/></g><g><path d="m52.089 509.709c-7.334 0-14.769-1.722-21.702-5.358-11.095-5.818-19.26-15.608-22.991-27.567s-2.582-24.655 3.235-35.75c6.114-11.661 25.964-26.232 58.997-43.308 5.218-2.697 11.44-2.677 16.643.051 5.204 2.729 8.758 7.836 9.506 13.661 4.739 36.883 4.041 61.496-2.074 73.158-8.374 15.969-24.722 25.112-41.614 25.113zm25.802-99.004c-.415 0-.882.091-1.375.346-28.542 14.755-48.206 28.568-52.601 36.949-3.957 7.546-4.739 16.182-2.201 24.316s8.092 14.793 15.638 18.75c15.58 8.169 34.898 2.14 43.066-13.438 4.396-8.382 4.575-32.412.48-64.28-.174-1.354-1.074-2.015-1.594-2.288-.308-.161-.806-.355-1.413-.355zm-60.618 33.813h.01z"/></g><g><path d="m57.207 245.271c-12.01 0-24.021-4.572-33.164-13.715-9.311-9.311-17.308-32.6-23.77-69.219-1.021-5.783.851-11.717 5.005-15.872 4.155-4.155 10.089-6.028 15.872-5.006 36.62 6.462 59.909 14.46 69.219 23.77 18.287 18.286 18.287 48.041 0 66.327-9.141 9.144-21.151 13.715-33.162 13.715zm-22.557-24.321c12.438 12.438 32.676 12.438 45.114 0s12.438-32.676 0-45.114c-6.692-6.692-29.578-14.021-61.219-19.605-1.347-.238-2.244.424-2.659.84-.416.416-1.078 1.314-.841 2.659 5.584 31.641 12.913 54.527 19.605 61.22z"/></g></g></svg>