<?xml version="1.0" encoding="UTF-8" standalone="no"?>
<!-- Created with Inkscape (http://www.inkscape.org/) -->

<svg
   version="1.1"
   id="svg255"
   xml:space="preserve"
   width="682.66669"
   height="682.66669"
   viewBox="0 0 682.66669 682.66669"
   xmlns="http://www.w3.org/2000/svg"
   xmlns:svg="http://www.w3.org/2000/svg"><defs
     id="defs259"><clipPath
       clipPathUnits="userSpaceOnUse"
       id="clipPath269"><path
         d="M 0,512 H 512 V 0 H 0 Z"
         id="path267" /></clipPath></defs><g
     id="g261"
     transform="matrix(1.3333333,0,0,-1.3333333,0,682.66667)"><g
       id="g263"><g
         id="g265"
         clip-path="url(#clipPath269)"><g
           id="g271"
           transform="translate(458.1091,444.7437)"><path
             d="m 0,0 h -28.041 c 6.026,-72.097 -7.48,-184.132 -114.645,-288.97 -86.501,-84.623 -210.66,-84.216 -282.082,-48.582 -8.426,-6.452 -12.146,-18.085 -7.606,-28.658 31.455,-73.248 217.03,-114.096 333.881,0.218 C 78.521,-192.821 0,0 0,0"
             style="fill:#80d57b;fill-opacity:1;fill-rule:nonzero;stroke:none"
             id="path273" /></g><g
           id="g275"
           transform="translate(458.1091,444.7437)"><path
             d="m 0,0 h -28.041 c 0.189,-2.261 0.359,-4.562 0.507,-6.9 11.866,-35.851 56.323,-205.225 -100.959,-359.092 -47.974,-46.933 -107.531,-67.707 -163.253,-70.827 63.619,-3.59 136.532,15.338 193.253,70.827 C 78.521,-192.821 0,0 0,0"
             style="fill:#61ab63;fill-opacity:1;fill-rule:nonzero;stroke:none"
             id="path277" /></g><g
           id="g279"
           transform="translate(276.1423,68.3523)"><path
             d="M 0,0 C -25.386,-21.323 -61.446,-20.177 -80.542,2.559 -99.639,25.294 -94.54,61.01 -69.154,82.333 -43.769,103.656 -7.708,102.51 11.389,79.774 30.484,57.039 25.386,21.323 0,0"
             style="fill:#f9eed7;fill-opacity:1;fill-rule:nonzero;stroke:none"
             id="path281" /></g><g
           id="g283"
           transform="translate(381.7966,154.9482)"><path
             d="m 0,0 c -20.149,-27.691 -56.588,-35.51 -81.389,-17.465 -24.799,18.046 -28.57,55.123 -8.421,82.814 20.15,27.691 56.588,35.51 81.388,17.464 C 16.378,64.768 20.148,27.691 0,0"
             style="fill:#f9eed7;fill-opacity:1;fill-rule:nonzero;stroke:none"
             id="path285" /></g><g
           id="g287"
           transform="translate(435.1266,267.2676)"><path
             d="M 0,0 C -14.413,-25.956 -44.941,-36.533 -68.187,-23.625 -91.433,-10.717 -98.594,20.788 -84.181,46.744 -69.768,72.7 -39.24,83.277 -15.994,70.369 7.252,57.461 14.412,25.956 0,0"
             style="fill:#f9eed7;fill-opacity:1;fill-rule:nonzero;stroke:none"
             id="path289" /></g><g
           id="g291"
           transform="translate(147.1706,42.5142)"><path
             d="m 0,0 c -24.911,-5.266 -48.929,8.552 -53.645,30.862 -4.716,22.31 11.655,44.665 36.566,49.931 C 7.832,86.058 31.85,72.241 36.565,49.931 41.282,27.621 24.91,5.266 0,0"
             style="fill:#f9eed7;fill-opacity:1;fill-rule:nonzero;stroke:none"
             id="path293" /></g><g
           id="g295"
           transform="translate(315.4235,155.7737)"><path
             d="m 0,0 c 107.165,104.838 120.671,216.873 114.645,288.97 h -7.617 c 0,0 -59.457,-124.018 -160.592,-225.154 -76.186,-76.185 -175.33,-100.425 -217.861,-107.749 -4.048,-0.697 -7.649,-2.346 -10.657,-4.649 C -210.66,-84.216 -86.501,-84.623 0,0"
             style="fill:#80d57b;fill-opacity:1;fill-rule:nonzero;stroke:none"
             id="path297" /></g><g
           id="g299"
           transform="translate(430.0681,444.7437)"><path
             d="m 0,0 h -7.616 c 0,0 -7.387,-15.4 -21.363,-39.754 -2.24,-70.012 -26.613,-162.097 -115.666,-249.216 -47.991,-46.949 -107.572,-67.715 -163.309,-70.823 63.632,-3.605 136.571,15.317 193.309,70.823 C -7.479,-184.132 6.026,-72.097 0,0"
             style="fill:#67b569;fill-opacity:1;fill-rule:nonzero;stroke:none"
             id="path301" /></g><g
           id="g303"
           transform="translate(488.2184,370.2607)"><path
             d="m 0,0 c -0.283,25.805 -3.881,48.638 -7.656,65.701 -4.105,18.55 -20.614,31.713 -39.613,31.713 -15.081,0 -28.903,-8.366 -35.933,-21.709 -6.236,-11.837 -15.621,-28.757 -29.207,-51.344 -3.674,-6.108 -0.214,-14.019 6.767,-15.454 l 93.225,-19.163 C -5.956,-11.584 0.072,-6.596 0,0"
             style="fill:#55a677;fill-opacity:1;fill-rule:nonzero;stroke:none"
             id="path305" /></g><g
           id="g307"
           transform="translate(480.5622,435.9614)"><path
             d="m 0,0 c -4.104,18.55 -20.613,31.713 -39.612,31.713 -5.216,0 -10.273,-1.021 -14.959,-2.883 C -42.401,23.982 -32.965,13.398 -30,0 c 3.775,-17.062 7.373,-39.896 7.656,-65.701 0.026,-2.355 -0.736,-4.498 -2.009,-6.229 l 19.592,-4.027 C 1.7,-77.285 7.728,-72.296 7.656,-65.701 7.373,-39.896 3.775,-17.062 0,0"
             style="fill:#419665;fill-opacity:1;fill-rule:nonzero;stroke:none"
             id="path309" /></g><g
           id="g311"
           transform="translate(188.3171,163.5659)"><path
             d="m 0,0 c 25.146,14.537 50.402,32.885 73.542,56.024 52.831,52.831 94.289,111.907 121.84,156.286"
             style="fill:none;stroke:#000000;stroke-width:15;stroke-linecap:round;stroke-linejoin:round;stroke-miterlimit:10;stroke-dasharray:none;stroke-opacity:1"
             id="path313" /></g><g
           id="g315"
           transform="translate(475.0349,356.1433)"><path
             d="m 0,0 c 3.593,-72.165 -13.836,-178.014 -115.419,-277.392 -116.851,-114.314 -302.426,-73.466 -333.88,-0.218 -6.161,14.347 2.875,30.658 18.263,33.308 25.023,4.308 69.641,14.473 117.653,37.626"
             style="fill:none;stroke:#000000;stroke-width:15;stroke-linecap:round;stroke-linejoin:round;stroke-miterlimit:10;stroke-dasharray:none;stroke-opacity:1"
             id="path317" /></g><g
           id="g319"
           transform="translate(295.4655,135.8894)"><path
             d="m 0,0 c 9.547,-21.448 2.217,-49.445 -19.336,-67.548 -25.379,-21.316 -60.868,-20.839 -79.268,1.067 -3.366,4.008 -5.926,8.455 -7.708,13.177"
             style="fill:none;stroke:#000000;stroke-width:15;stroke-linecap:round;stroke-linejoin:round;stroke-miterlimit:10;stroke-dasharray:none;stroke-opacity:1"
             id="path321" /></g><g
           id="g323"
           transform="translate(381.4333,230.4431)"><path
             d="m 0,0 c 17.304,-19.543 18.079,-51.147 0.363,-75.495 -20.149,-27.691 -56.588,-35.51 -81.388,-17.465"
             style="fill:none;stroke:#000000;stroke-width:15;stroke-linecap:round;stroke-linejoin:round;stroke-miterlimit:10;stroke-dasharray:none;stroke-opacity:1"
             id="path325" /></g><g
           id="g327"
           transform="translate(422.8522,335.3203)"><path
             d="M 0,0 C 20.254,-14.071 25.888,-43.537 12.274,-68.053 1.152,-88.082 -19.566,-98.954 -39.129,-96.943"
             style="fill:none;stroke:#000000;stroke-width:15;stroke-linecap:round;stroke-linejoin:round;stroke-miterlimit:10;stroke-dasharray:none;stroke-opacity:1"
             id="path329" /></g><g
           id="g331"
           transform="translate(184.5456,84.5237)"><path
             d="m 0,0 c -0.102,-19.457 -15.423,-37.369 -37.375,-42.01 -24.911,-5.265 -48.929,8.552 -53.645,30.862 -0.791,3.742 -0.989,7.486 -0.653,11.149"
             style="fill:none;stroke:#000000;stroke-width:15;stroke-linecap:round;stroke-linejoin:round;stroke-miterlimit:10;stroke-dasharray:none;stroke-opacity:1"
             id="path333" /></g><g
           id="g335"
           transform="translate(443.5671,504.5)"><path
             d="M 0,0 V 0 C 9.81,-7.455 12.671,-20.974 6.723,-31.764 L 4.905,-35.063"
             style="fill:none;stroke:#000000;stroke-width:15;stroke-linecap:round;stroke-linejoin:round;stroke-miterlimit:10;stroke-dasharray:none;stroke-opacity:1"
             id="path337" /></g><g
           id="g339"
           transform="translate(33.3415,107.1919)"><path
             d="m 0,0 c 71.422,-35.634 195.581,-36.041 282.082,48.582 73.384,71.79 102.85,146.956 112.199,210.361"
             style="fill:none;stroke:#000000;stroke-width:15;stroke-linecap:round;stroke-linejoin:round;stroke-miterlimit:10;stroke-dasharray:none;stroke-opacity:1"
             id="path341" /></g><g
           id="g343"
           transform="translate(483.0817,423.4131)"><path
             d="m 0,0 c -0.806,4.461 -1.658,8.655 -2.52,12.548 -4.104,18.55 -20.613,31.714 -39.612,31.714 -15.081,0 -28.903,-8.366 -35.933,-21.709 -6.237,-11.838 -15.622,-28.758 -29.207,-51.344 -3.674,-6.108 -0.214,-14.019 6.767,-15.455 L -7.28,-63.409 c 6.461,-1.328 12.489,3.661 12.417,10.257 -0.092,8.305 -0.526,16.302 -1.199,23.898"
             style="fill:none;stroke:#000000;stroke-width:15;stroke-linecap:round;stroke-linejoin:round;stroke-miterlimit:10;stroke-dasharray:none;stroke-opacity:1"
             id="path345" /></g></g></g></g></svg>
