<?xml version="1.0" encoding="UTF-8" standalone="no"?>
<!-- Created with Inkscape (http://www.inkscape.org/) -->

<svg
   version="1.1"
   id="svg1101"
   xml:space="preserve"
   width="682.66669"
   height="682.66669"
   viewBox="0 0 682.66669 682.66669"
   xmlns="http://www.w3.org/2000/svg"
   xmlns:svg="http://www.w3.org/2000/svg"><defs
     id="defs1105"><clipPath
       clipPathUnits="userSpaceOnUse"
       id="clipPath1115"><path
         d="M 0,512 H 512 V 0 H 0 Z"
         id="path1113" /></clipPath></defs><g
     id="g1107"
     transform="matrix(1.3333333,0,0,-1.3333333,0,682.66667)"><g
       id="g1109"><g
         id="g1111"
         clip-path="url(#clipPath1115)"><g
           id="g1117"
           transform="translate(376.1403,388.8923)"><path
             d="m 0,0 h -240.28 v -369.463 c 0,-6.589 5.341,-11.929 11.928,-11.929 h 216.423 c 6.588,0 11.929,5.34 11.929,11.929 z"
             style="fill:#f2f5fb;fill-opacity:1;fill-rule:nonzero;stroke:none"
             id="path1119" /></g><g
           id="g1121"
           transform="translate(346.1403,388.8923)"><path
             d="m 0,0 v -369.463 c 0,-6.589 -5.341,-11.929 -11.93,-11.929 h 30 c 6.589,0 11.93,5.34 11.93,11.929 V 0 Z"
             style="fill:#e6e8f0;fill-opacity:1;fill-rule:nonzero;stroke:none"
             id="path1123" /></g><g
           id="g1125"
           transform="translate(376.1403,388.8923)"><path
             d="m 0,0 h -240.28 l 20.557,61.054 h 199.165 z"
             style="fill:#8fd2f1;fill-opacity:1;fill-rule:nonzero;stroke:none"
             id="path1127" /></g><g
           id="g1129"
           transform="translate(372.3034,246.8572)"><path
             d="M 0,0 -236.443,-49.202 V -153.644 L 0.435,-104.352"
             style="fill:#8fd2f1;fill-opacity:1;fill-rule:nonzero;stroke:none"
             id="path1131" /></g><g
           id="g1133"
           transform="translate(355.5827,449.9468)"><path
             d="m 0,0 h -199.165 v 40.056 c 0,8.007 6.49,14.497 14.497,14.497 H -14.497 C -6.49,54.553 0,48.063 0,40.056 Z"
             style="fill:#f2f5fb;fill-opacity:1;fill-rule:nonzero;stroke:none"
             id="path1135" /></g><g
           id="g1137"
           transform="translate(355.5827,449.9468)"><path
             d="m 0,0 h -30 l 20.558,-61.054 h 30 z"
             style="fill:#77c1e0;fill-opacity:1;fill-rule:nonzero;stroke:none"
             id="path1139" /></g><g
           id="g1141"
           transform="translate(342.738,139.5854)"><path
             d="M 0,0 -150.607,-34.663 30,2.919 29.565,107.272 -0.38,101.04 Z"
             style="fill:#77c1e0;fill-opacity:1;fill-rule:nonzero;stroke:none"
             id="path1143" /></g><g
           id="g1145"
           transform="translate(341.0856,504.5)"><path
             d="m 0,0 h -30 c 8.007,0 14.497,-6.491 14.497,-14.498 v -40.055 h 30 v 40.055 C 14.497,-6.491 8.007,0 0,0"
             style="fill:#e6e8f0;fill-opacity:1;fill-rule:nonzero;stroke:none"
             id="path1147" /></g><g
           id="g1149"
           transform="translate(303.2487,213.3005)"><path
             d="m 0,0 c 0,-26.094 -21.154,-47.248 -47.249,-47.248 -26.094,0 -47.248,21.154 -47.248,47.248 0,34.969 26.167,61.046 39.555,81.072 3.667,5.487 11.719,5.487 15.387,0 C -26.167,61.046 0,34.969 0,0"
             style="fill:#c8ebfd;fill-opacity:1;fill-rule:nonzero;stroke:none"
             id="path1151" /></g><g
           id="g1153"
           transform="translate(263.694,294.3728)"><path
             d="m 0,0 c -3.668,5.487 -11.721,5.487 -15.388,0 -2.157,-3.227 -4.648,-6.613 -7.306,-10.166 13.837,-18.497 32.248,-41.571 32.248,-70.906 0,-20.849 -13.509,-38.532 -32.248,-44.803 4.715,-1.578 9.755,-2.446 15,-2.446 26.094,0 47.248,21.154 47.248,47.249 C 39.554,-46.103 13.388,-20.027 0,0"
             style="fill:#aae1fd;fill-opacity:1;fill-rule:nonzero;stroke:none"
             id="path1155" /></g><g
           id="g1157"
           transform="translate(205.6403,212.1763)"><path
             d="M 0,0 -66.093,-13.753"
             style="fill:none;stroke:#000000;stroke-width:15;stroke-linecap:round;stroke-linejoin:round;stroke-miterlimit:10;stroke-dasharray:none;stroke-opacity:1"
             id="path1159" /></g><g
           id="g1161"
           transform="translate(372.3034,246.8572)"><path
             d="M 0,0 -65.396,-13.608"
             style="fill:none;stroke:#000000;stroke-width:15;stroke-linecap:round;stroke-linejoin:round;stroke-miterlimit:10;stroke-dasharray:none;stroke-opacity:1"
             id="path1163" /></g><g
           id="g1165"
           transform="translate(142.0925,94.5098)"><path
             d="M 0,0 230.645,47.995"
             style="fill:none;stroke:#000000;stroke-width:15;stroke-linecap:round;stroke-linejoin:round;stroke-miterlimit:10;stroke-dasharray:none;stroke-opacity:1"
             id="path1167" /></g><g
           id="g1169"
           transform="translate(376.1403,388.8923)"><path
             d="m 0,0 h -240.28 l 20.557,61.054 h 199.165 z"
             style="fill:none;stroke:#000000;stroke-width:15;stroke-linecap:round;stroke-linejoin:round;stroke-miterlimit:10;stroke-dasharray:none;stroke-opacity:1"
             id="path1171" /></g><g
           id="g1173"
           transform="translate(376.1403,337.2019)"><path
             d="M 0,0 V 51.69"
             style="fill:none;stroke:#000000;stroke-width:15;stroke-linecap:round;stroke-linejoin:round;stroke-miterlimit:10;stroke-dasharray:none;stroke-opacity:1"
             id="path1175" /></g><g
           id="g1177"
           transform="translate(238.7517,7.5)"><path
             d="m 0,0 h 125.46 c 6.588,0 11.929,5.341 11.929,11.929 v 287.773"
             style="fill:none;stroke:#000000;stroke-width:15;stroke-linecap:round;stroke-linejoin:round;stroke-miterlimit:10;stroke-dasharray:none;stroke-opacity:1"
             id="path1179" /></g><g
           id="g1181"
           transform="translate(135.8601,388.8923)"><path
             d="m 0,0 v -369.463 c 0,-6.589 5.341,-11.929 11.929,-11.929 h 60.963"
             style="fill:none;stroke:#000000;stroke-width:15;stroke-linecap:round;stroke-linejoin:round;stroke-miterlimit:10;stroke-dasharray:none;stroke-opacity:1"
             id="path1183" /></g><g
           id="g1185"
           transform="translate(156.4177,449.9468)"><path
             d="m 0,0 v 40.056 c 0,8.007 6.49,14.497 14.497,14.497 h 170.171 c 8.007,0 14.497,-6.49 14.497,-14.497 V 0"
             style="fill:none;stroke:#000000;stroke-width:15;stroke-linecap:round;stroke-linejoin:round;stroke-miterlimit:10;stroke-dasharray:none;stroke-opacity:1"
             id="path1187" /></g><g
           id="g1189"
           transform="translate(307.111,77.9502)"><path
             d="M 0,0 H 30.731"
             style="fill:none;stroke:#000000;stroke-width:15;stroke-linecap:round;stroke-linejoin:round;stroke-miterlimit:10;stroke-dasharray:none;stroke-opacity:1"
             id="path1191" /></g><g
           id="g1193"
           transform="translate(307.111,49.3157)"><path
             d="M 0,0 H 30.731"
             style="fill:none;stroke:#000000;stroke-width:15;stroke-linecap:round;stroke-linejoin:round;stroke-miterlimit:10;stroke-dasharray:none;stroke-opacity:1"
             id="path1195" /></g><g
           id="g1197"
           transform="translate(166.8269,353.5857)"><path
             d="M 0,0 H 30.732"
             style="fill:none;stroke:#000000;stroke-width:15;stroke-linecap:round;stroke-linejoin:round;stroke-miterlimit:10;stroke-dasharray:none;stroke-opacity:1"
             id="path1199" /></g><g
           id="g1201"
           transform="translate(166.8269,324.9512)"><path
             d="M 0,0 H 30.732"
             style="fill:none;stroke:#000000;stroke-width:15;stroke-linecap:round;stroke-linejoin:round;stroke-miterlimit:10;stroke-dasharray:none;stroke-opacity:1"
             id="path1203" /></g><g
           id="g1205"
           transform="translate(303.2487,213.3005)"><path
             d="m 0,0 c 0,-26.094 -21.154,-47.248 -47.249,-47.248 -26.094,0 -47.248,21.154 -47.248,47.248 0,34.969 26.167,61.046 39.555,81.072 3.667,5.487 11.719,5.487 15.387,0 C -26.167,61.046 0,34.969 0,0 Z"
             style="fill:none;stroke:#000000;stroke-width:15;stroke-linecap:round;stroke-linejoin:round;stroke-miterlimit:10;stroke-dasharray:none;stroke-opacity:1"
             id="path1207" /></g></g></g></g></svg>
