<?xml version="1.0" encoding="UTF-8" standalone="no"?>
<!-- Created with Inkscape (http://www.inkscape.org/) -->

<svg
   version="1.1"
   id="svg9"
   xml:space="preserve"
   width="682.66669"
   height="682.66669"
   viewBox="0 0 682.66669 682.66669"
   xmlns="http://www.w3.org/2000/svg"
   xmlns:svg="http://www.w3.org/2000/svg"><defs
     id="defs13"><clipPath
       clipPathUnits="userSpaceOnUse"
       id="clipPath23"><path
         d="M 0,512 H 512 V 0 H 0 Z"
         id="path21" /></clipPath></defs><g
     id="g15"
     transform="matrix(1.3333333,0,0,-1.3333333,0,682.66667)"><g
       id="g17"><g
         id="g19"
         clip-path="url(#clipPath23)"><g
           id="g25"
           transform="translate(71.1374,218.4375)"><path
             d="m 0,0 c 20.706,33.997 25.158,75.527 12.557,113.285 -3.832,11.483 -5.852,23.795 -5.72,36.597 0.503,48.845 32.793,90.504 77.074,105.096 11.447,3.772 21.004,11.808 27.03,22.246 l 3.794,6.57 c 1.746,3.025 6.112,3.025 7.859,0 l 3.731,-6.463 c 6.051,-10.481 15.649,-18.557 27.15,-22.321 44.72,-14.634 77.023,-56.697 77.023,-106.306 0,-12.043 -1.904,-23.641 -5.427,-34.509 -12.486,-38.516 -8.034,-80.322 12.776,-115.054 11.691,-19.511 18.726,-42.131 19.569,-66.328 2.83,-81.328 -65.615,-148.197 -146.858,-143.519 -72.904,4.197 -130.73,64.647 -130.73,138.603 0,26.406 7.373,51.089 20.172,72.103"
             style="fill:#e9e0c3;fill-opacity:1;fill-rule:nonzero;stroke:none"
             id="path27" /></g><g
           id="g29"
           transform="translate(328.5529,151.251)"><path
             d="m 0,0 c -0.842,24.196 -7.877,46.817 -19.568,66.328 -20.811,34.731 -25.262,76.537 -12.777,115.053 3.523,10.869 5.428,22.466 5.428,34.509 0,43.266 -24.582,80.77 -60.529,99.367 -35.658,-18.48 -60.283,-55.592 -60.722,-98.189 -0.132,-12.802 1.888,-25.114 5.72,-36.596 12.601,-37.759 8.149,-79.289 -12.557,-113.285 -12.799,-21.015 -20.172,-45.697 -20.172,-72.103 0,-58.516 36.216,-108.548 87.444,-128.979 C -35.138,-112.843 2.103,-60.419 0,0"
             style="fill:#d5c6ad;fill-opacity:1;fill-rule:nonzero;stroke:none"
             id="path31" /></g><g
           id="g33"
           transform="translate(440.8625,218.4375)"><path
             d="m 0,0 c -20.706,33.997 -25.158,75.527 -12.557,113.285 3.832,11.483 5.852,23.795 5.72,36.597 -0.503,48.845 -32.793,90.504 -77.074,105.096 -11.447,3.772 -21.004,11.808 -27.03,22.246 l -3.794,6.57 c -1.746,3.025 -6.112,3.025 -7.859,0 l -3.731,-6.463 c -6.051,-10.481 -15.649,-18.557 -27.15,-22.321 -44.72,-14.634 -77.023,-56.697 -77.023,-106.306 0,-12.043 1.904,-23.641 5.427,-34.509 12.486,-38.516 8.034,-80.322 -12.776,-115.054 -11.691,-19.511 -18.726,-42.131 -19.568,-66.328 -2.831,-81.328 65.614,-148.197 146.857,-143.519 72.904,4.197 130.73,64.647 130.73,138.603 C 20.172,-45.697 12.799,-21.014 0,0"
             style="fill:#f9eed7;fill-opacity:1;fill-rule:nonzero;stroke:none"
             id="path35" /></g><g
           id="g37"
           transform="translate(322.1716,43.5984)"><path
             d="m 0,0 c -27.363,0.001 -53.055,10.505 -72.344,29.578 -19.305,19.089 -30.088,44.696 -30.361,72.104 -0.189,18.996 4.831,37.58 14.515,53.742 26.01,43.411 31.897,96.167 16.151,144.743 -2.434,7.507 -3.668,15.372 -3.668,23.376 0,41.759 33.974,75.733 75.734,75.733 0.362,0 0.728,-0.002 1.091,-0.007 40.736,-0.568 74.218,-34.176 74.638,-74.92 0.088,-8.505 -1.213,-16.848 -3.865,-24.796 C 55.946,251.774 61.879,199.286 88.169,155.549 97.716,139.665 102.763,121.403 102.763,102.737 102.763,75.542 92.242,49.908 73.138,30.559 54.05,11.227 28.593,0.377 1.456,0.01 0.969,0.003 0.484,0 0,0"
             style="fill:#b28477;fill-opacity:1;fill-rule:nonzero;stroke:none"
             id="path39" /></g><g
           id="g41"
           transform="translate(440.8625,218.4375)"><path
             d="m 0,0 c -20.706,33.997 -25.158,75.527 -12.557,113.285 3.832,11.483 5.852,23.795 5.72,36.597 -0.503,48.845 -32.793,90.504 -77.074,105.096 -11.447,3.772 -21.004,11.808 -27.03,22.246 l -3.794,6.57 c -1.746,3.025 -6.112,3.025 -7.859,0 l -3.731,-6.463 c -2.06,-3.568 -4.539,-6.848 -7.356,-9.782 5.447,-5.697 12.19,-10.073 19.77,-12.571 44.281,-14.592 76.571,-56.251 77.074,-105.096 0.132,-12.802 -1.888,-25.114 -5.72,-36.597 C -55.158,75.527 -50.706,33.997 -30,0 c 12.799,-21.014 20.172,-45.697 20.172,-72.103 0,-71.564 -54.147,-130.48 -123.707,-138.018 7.507,-0.818 15.182,-1.034 22.977,-0.585 72.904,4.197 130.73,64.647 130.73,138.603 C 20.172,-45.697 12.799,-21.014 0,0"
             style="fill:#e9e0c3;fill-opacity:1;fill-rule:nonzero;stroke:none"
             id="path43" /></g><g
           id="g45"
           transform="translate(410.3405,199.147)"><path
             d="m 0,0 c -26.29,43.738 -32.223,96.226 -16.278,144.005 2.653,7.948 3.953,16.29 3.865,24.795 -0.42,40.744 -33.902,74.353 -74.638,74.92 -0.363,0.005 -0.729,0.008 -1.091,0.008 -5.166,0 -10.211,-0.524 -15.087,-1.514 34.223,-6.963 60.445,-37.391 60.816,-73.414 0.088,-8.505 -1.212,-16.847 -3.865,-24.795 C -62.223,96.226 -56.29,43.738 -30,0 c 9.547,-15.884 14.594,-34.145 14.594,-52.812 0,-27.195 -10.521,-52.828 -29.625,-72.177 -15.886,-16.089 -36.184,-26.296 -58.189,-29.482 4.939,-0.713 9.966,-1.077 15.051,-1.078 0.484,0 0.969,0.004 1.456,0.01 27.137,0.368 52.594,11.217 71.682,30.55 19.104,19.349 29.625,44.982 29.625,72.177 C 14.594,-34.145 9.547,-15.884 0,0"
             style="fill:#9c7368;fill-opacity:1;fill-rule:nonzero;stroke:none"
             id="path47" /></g><g
           id="g49"
           transform="translate(360.7863,355.2324)"><path
             d="m 0,0 c 0,-28.493 -17.276,-51.591 -38.588,-51.591 -21.311,0 -38.588,23.098 -38.588,51.591 0,28.492 17.277,51.59 38.588,51.59 C -17.276,51.59 0,28.492 0,0"
             style="fill:#f7b565;fill-opacity:1;fill-rule:nonzero;stroke:none"
             id="path51" /></g><g
           id="g53"
           transform="translate(375.5842,155.0259)"><path
             d="m 0,0 c 0,-39.419 -23.901,-71.374 -53.386,-71.374 -29.484,0 -53.385,31.955 -53.385,71.374 0,39.419 23.901,71.374 53.385,71.374 C -23.901,71.374 0,39.419 0,0"
             style="fill:#f7b565;fill-opacity:1;fill-rule:nonzero;stroke:none"
             id="path55" /></g><g
           id="g57"
           transform="translate(322.1984,406.8228)"><path
             d="M 0,0 C -5.32,0 -10.389,-1.44 -15,-4.044 -1.14,-11.869 8.588,-30.211 8.588,-51.59 8.588,-72.97 -1.14,-91.312 -15,-99.137 c 4.611,-2.604 9.68,-4.044 15,-4.044 21.312,0 38.588,23.098 38.588,51.591 C 38.588,-23.098 21.312,0 0,0"
             style="fill:#d98f36;fill-opacity:1;fill-rule:nonzero;stroke:none"
             id="path59" /></g><g
           id="g61"
           transform="translate(322.1984,226.4001)"><path
             d="m 0,0 c -5.21,0 -10.24,-1.016 -15,-2.877 22.179,-8.668 38.386,-36.044 38.386,-68.497 0,-32.454 -16.207,-59.83 -38.386,-68.498 4.76,-1.86 9.79,-2.877 15,-2.877 29.484,0 53.386,31.956 53.386,71.375 C 53.386,-31.956 29.484,0 0,0"
             style="fill:#d98f36;fill-opacity:1;fill-rule:nonzero;stroke:none"
             id="path63" /></g><g
           id="g65"
           transform="translate(147.1525,415.0691)"><path
             d="m 0,0 c 0,-4.142 -3.358,-7.5 -7.5,-7.5 -4.142,0 -7.5,3.358 -7.5,7.5 0,4.142 3.358,7.5 7.5,7.5 C -3.358,7.5 0,4.142 0,0"
             style="fill:#000000;fill-opacity:1;fill-rule:nonzero;stroke:none"
             id="path67" /></g><g
           id="g69"
           transform="translate(179.5065,60.4531)"><path
             d="m 0,0 c 0,-4.142 -3.357,-7.5 -7.5,-7.5 -4.142,0 -7.5,3.358 -7.5,7.5 0,4.142 3.358,7.5 7.5,7.5 C -3.357,7.5 0,4.142 0,0"
             style="fill:#000000;fill-opacity:1;fill-rule:nonzero;stroke:none"
             id="path71" /></g><g
           id="g73"
           transform="translate(124.6525,381.6099)"><path
             d="m 0,0 c 0,-4.142 -3.358,-7.5 -7.5,-7.5 -4.142,0 -7.5,3.358 -7.5,7.5 0,4.142 3.358,7.5 7.5,7.5 C -3.358,7.5 0,4.142 0,0"
             style="fill:#000000;fill-opacity:1;fill-rule:nonzero;stroke:none"
             id="path75" /></g><g
           id="g77"
           transform="translate(322.1716,43.5984)"><path
             d="m 0,0 c -27.363,0.001 -53.055,10.505 -72.344,29.578 -19.305,19.089 -30.088,44.696 -30.361,72.104 -0.189,18.996 4.831,37.58 14.515,53.742 26.01,43.411 31.897,96.167 16.151,144.743 -2.434,7.507 -3.668,15.372 -3.668,23.376 0,41.759 33.974,75.733 75.734,75.733 0.362,0 0.728,-0.002 1.091,-0.007 40.736,-0.568 74.218,-34.176 74.638,-74.92 0.088,-8.505 -1.213,-16.848 -3.865,-24.796 C 55.946,251.774 61.879,199.286 88.169,155.549 97.716,139.665 102.763,121.403 102.763,102.737 102.763,75.542 92.242,49.908 73.138,30.559 54.05,11.227 28.593,0.377 1.456,0.01 0.969,0.003 0.484,0 0,0 Z"
             style="fill:none;stroke:#000000;stroke-width:15;stroke-linecap:round;stroke-linejoin:round;stroke-miterlimit:10;stroke-dasharray:none;stroke-opacity:1"
             id="path79" /></g><g
           id="g81"
           transform="translate(416.0412,427.7747)"><path
             d="m 0,0 c -13.806,21.244 -34.617,37.576 -59.089,45.641 -11.448,3.772 -21.005,11.807 -27.031,22.245 l -3.794,6.571 c -1.746,3.025 -6.112,3.025 -7.858,0 l -3.732,-6.463 c -6.051,-10.481 -15.648,-18.557 -27.15,-22.321 -44.72,-14.634 -77.023,-56.697 -77.023,-106.307 0,-12.042 1.905,-23.64 5.428,-34.508 12.485,-38.516 8.034,-80.322 -12.777,-115.054 -11.691,-19.511 -18.726,-42.132 -19.568,-66.328 -2.831,-81.329 65.614,-148.197 146.858,-143.519 72.903,4.197 130.729,64.647 130.729,138.603 0,26.406 -7.372,51.088 -20.172,72.103 -20.706,33.996 -25.158,75.526 -12.557,113.285 3.832,11.483 5.852,23.794 5.72,36.596 -0.11,10.767 -1.765,21.184 -4.753,31.039"
             style="fill:none;stroke:#000000;stroke-width:15;stroke-linecap:round;stroke-linejoin:round;stroke-miterlimit:10;stroke-dasharray:none;stroke-opacity:1"
             id="path83" /></g><g
           id="g85"
           transform="translate(360.7863,355.2324)"><path
             d="m 0,0 c 0,-28.493 -17.276,-51.591 -38.588,-51.591 -21.311,0 -38.588,23.098 -38.588,51.591 0,28.492 17.277,51.59 38.588,51.59 C -17.276,51.59 0,28.492 0,0 Z"
             style="fill:none;stroke:#000000;stroke-width:15;stroke-linecap:round;stroke-linejoin:round;stroke-miterlimit:10;stroke-dasharray:none;stroke-opacity:1"
             id="path87" /></g><g
           id="g89"
           transform="translate(375.5842,155.0259)"><path
             d="m 0,0 c 0,-39.419 -23.901,-71.374 -53.386,-71.374 -29.484,0 -53.385,31.955 -53.385,71.374 0,39.419 23.901,71.374 53.385,71.374 C -23.901,71.374 0,39.419 0,0 Z"
             style="fill:none;stroke:#000000;stroke-width:15;stroke-linecap:round;stroke-linejoin:round;stroke-miterlimit:10;stroke-dasharray:none;stroke-opacity:1"
             id="path91" /></g><g
           id="g93"
           transform="translate(53.51,119.739)"><path
             d="m 0,0 c -1.669,8.608 -2.544,17.5 -2.544,26.596 0,26.406 7.373,51.088 20.171,72.102 20.706,33.997 25.159,75.527 12.558,113.286 -3.832,11.482 -5.852,23.794 -5.721,36.596 0.503,48.846 32.794,90.504 77.074,105.096 11.447,3.772 21.004,11.808 27.031,22.246 l 3.793,6.57 c 1.747,3.025 6.113,3.025 7.859,0 l 3.732,-6.463 c 6.05,-10.48 15.648,-18.556 27.15,-22.32 11.18,-3.659 21.584,-9.032 30.9,-15.808"
             style="fill:none;stroke:#000000;stroke-width:15;stroke-linecap:round;stroke-linejoin:round;stroke-miterlimit:10;stroke-dasharray:none;stroke-opacity:1"
             id="path95" /></g><g
           id="g97"
           transform="translate(255.7863,24.3918)"><path
             d="m 0,0 c -21.908,-11.967 -47.304,-18.203 -74.091,-16.66 -53.305,3.068 -98.55,36.211 -119.023,82.717"
             style="fill:none;stroke:#000000;stroke-width:15;stroke-linecap:round;stroke-linejoin:round;stroke-miterlimit:10;stroke-dasharray:none;stroke-opacity:1"
             id="path99" /></g></g></g></g></svg>
