<?xml version="1.0" encoding="UTF-8" standalone="no"?>
<!-- Created with Inkscape (http://www.inkscape.org/) -->

<svg
   version="1.1"
   id="svg147"
   xml:space="preserve"
   width="682.66669"
   height="682.66669"
   viewBox="0 0 682.66669 682.66669"
   xmlns="http://www.w3.org/2000/svg"
   xmlns:svg="http://www.w3.org/2000/svg"><defs
     id="defs151"><clipPath
       clipPathUnits="userSpaceOnUse"
       id="clipPath161"><path
         d="M 0,512 H 512 V 0 H 0 Z"
         id="path159" /></clipPath></defs><g
     id="g153"
     transform="matrix(1.3333333,0,0,-1.3333333,0,682.66667)"><g
       id="g155"><g
         id="g157"
         clip-path="url(#clipPath161)"><g
           id="g163"
           transform="translate(405.093,209.1245)"><path
             d="m 0,0 c 0,-82.342 -56.746,-156.171 -149.093,-156.171 -93.583,0 -149.093,73.829 -149.093,156.171 0,82.342 76.169,295.375 149.093,295.375 C -80.159,295.375 0,82.342 0,0"
             style="fill:#99674f;fill-opacity:1;fill-rule:nonzero;stroke:none"
             id="path165" /></g><g
           id="g167"
           transform="translate(332.4304,209.1245)"><path
             d="m 0,0 c 0,-82.342 -29.09,-156.171 -76.43,-156.171 -47.974,0 -76.43,73.829 -76.43,156.171 0,82.342 39.047,295.375 76.43,295.375 C -41.093,295.375 0,82.342 0,0"
             style="fill:#b28477;fill-opacity:1;fill-rule:nonzero;stroke:none"
             id="path169" /></g><g
           id="g171"
           transform="translate(256.0002,504.5)"><path
             d="m 0,0 c -5.114,0 -10.245,-1.049 -15.363,-3.025 65.146,-26.213 134.456,-215.783 134.456,-292.35 0,-77.812 -50.68,-148.009 -134.184,-155.5 4.915,-0.436 9.942,-0.672 15.091,-0.672 92.347,0 149.093,73.829 149.093,156.172 C 149.093,-213.034 68.934,0 0,0"
             style="fill:#8a5841;fill-opacity:1;fill-rule:nonzero;stroke:none"
             id="path173" /></g><g
           id="g175"
           transform="translate(256.0002,504.5)"><path
             d="m 0,0 c -0.386,0 -0.772,-0.03 -1.158,-0.075 v -39.467 c 25.622,-65.588 47.588,-195.632 47.588,-255.833 0,-73.302 -23.054,-139.857 -61.513,-153.587 4.785,-1.694 9.816,-2.585 15.083,-2.585 47.34,0 76.43,73.829 76.43,156.172 C 76.43,-213.034 35.337,0 0,0"
             style="fill:#9c7368;fill-opacity:1;fill-rule:nonzero;stroke:none"
             id="path177" /></g><g
           id="g179"
           transform="translate(101.1184,230.2776)"><path
             d="m 0,0 c -4.932,0 -9.137,-3.599 -9.892,-8.473 -2.22,-14.326 -3.402,-27.249 -3.402,-38.144 0,-92.881 62.615,-176.161 168.176,-176.161 104.167,0 168.176,83.28 168.176,176.161 0,10.912 -1.249,23.86 -3.578,38.213 C 318.694,-3.561 314.504,0 309.599,0 Z"
             style="fill:#f9eed7;fill-opacity:1;fill-rule:nonzero;stroke:none"
             id="path181" /></g><g
           id="g183"
           transform="translate(420.5984,221.8738)"><path
             d="m 0,0 c -0.786,4.843 -4.976,8.404 -9.881,8.404 h -30 c 4.905,0 9.095,-3.561 9.881,-8.404 2.329,-14.353 3.578,-27.301 3.578,-38.213 0,-88.364 -57.937,-168.032 -153.268,-175.572 4.928,-0.386 9.958,-0.589 15.092,-0.589 104.167,0 168.176,83.28 168.176,176.161 C 3.578,-27.301 2.329,-14.353 0,0"
             style="fill:#e9e0c3;fill-opacity:1;fill-rule:nonzero;stroke:none"
             id="path185" /></g><g
           id="g187"
           transform="translate(138.4538,176.176)"><path
             d="m 0,0 c 0,-4.142 -3.358,-7.5 -7.5,-7.5 -4.143,0 -7.5,3.358 -7.5,7.5 0,4.142 3.357,7.5 7.5,7.5 C -3.358,7.5 0,4.142 0,0"
             style="fill:#000000;fill-opacity:1;fill-rule:nonzero;stroke:none"
             id="path189" /></g><g
           id="g191"
           transform="translate(138.4538,134.1948)"><path
             d="m 0,0 c 0,-4.142 -3.358,-7.5 -7.5,-7.5 -4.143,0 -7.5,3.358 -7.5,7.5 0,4.142 3.357,7.5 7.5,7.5 C -3.358,7.5 0,4.142 0,0"
             style="fill:#000000;fill-opacity:1;fill-rule:nonzero;stroke:none"
             id="path193" /></g><g
           id="g195"
           transform="translate(372.0598,109.5188)"><path
             d="m 0,0 c 0,-4.142 -3.358,-7.5 -7.5,-7.5 -4.143,0 -7.5,3.358 -7.5,7.5 0,4.142 3.357,7.5 7.5,7.5 C -3.358,7.5 0,4.142 0,0"
             style="fill:#000000;fill-opacity:1;fill-rule:nonzero;stroke:none"
             id="path197" /></g><g
           id="g199"
           transform="translate(366.0783,365.0415)"><path
             d="M 0,0 C 18.959,-46.795 32.818,-96.289 37.387,-132.723"
             style="fill:none;stroke:#000000;stroke-width:15;stroke-linecap:round;stroke-linejoin:round;stroke-miterlimit:10;stroke-dasharray:none;stroke-opacity:1"
             id="path201" /></g><g
           id="g203"
           transform="translate(108.4577,232.3186)"><path
             d="m 0,0 c 11.164,93.282 80.716,272.181 147.542,272.181 33.675,0 70.028,-50.837 98.407,-112.443"
             style="fill:none;stroke:#000000;stroke-width:15;stroke-linecap:round;stroke-linejoin:round;stroke-miterlimit:10;stroke-dasharray:none;stroke-opacity:1"
             id="path205" /></g><g
           id="g207"
           transform="translate(152.5398,41.6912)"><path
             d="m 0,0 c 27.039,-21.298 61.925,-34.191 103.46,-34.191 104.167,0 168.177,83.279 168.177,176.16 0,10.912 -1.249,23.86 -3.578,38.214 -0.786,4.842 -4.976,8.403 -9.882,8.403 H -51.421 c -4.932,0 -9.137,-3.598 -9.892,-8.472 -2.22,-14.326 -3.403,-27.25 -3.403,-38.145 0,-45.693 15.154,-89.063 43.12,-121.336"
             style="fill:none;stroke:#000000;stroke-width:15;stroke-linecap:round;stroke-linejoin:round;stroke-miterlimit:10;stroke-dasharray:none;stroke-opacity:1"
             id="path209" /></g><g
           id="g211"
           transform="translate(181.6989,232.3184)"><path
             d="m 0,0 c 5.217,91.997 40.446,272.182 74.285,272.182 31.818,0 68.393,-178.281 74.163,-270.712"
             style="fill:none;stroke:#000000;stroke-width:15;stroke-linecap:round;stroke-linejoin:round;stroke-miterlimit:10;stroke-dasharray:none;stroke-opacity:1"
             id="path213" /></g><g
           id="g215"
           transform="translate(256.0002,504.5)"><path
             d="M 0,0 V -272.182"
             style="fill:none;stroke:#000000;stroke-width:15;stroke-linecap:round;stroke-linejoin:round;stroke-miterlimit:10;stroke-dasharray:none;stroke-opacity:1"
             id="path217" /></g></g></g></g></svg>
