<?xml version="1.0" encoding="UTF-8" standalone="no"?>
<!-- Created with Inkscape (http://www.inkscape.org/) -->

<svg
   version="1.1"
   id="svg5772"
   xml:space="preserve"
   width="682.66669"
   height="682.66669"
   viewBox="0 0 682.66669 682.66669"
   xmlns="http://www.w3.org/2000/svg"
   xmlns:svg="http://www.w3.org/2000/svg"><defs
     id="defs5776"><clipPath
       clipPathUnits="userSpaceOnUse"
       id="clipPath5786"><path
         d="M 0,512 H 512 V 0 H 0 Z"
         id="path5784" /></clipPath></defs><g
     id="g5778"
     transform="matrix(1.3333333,0,0,-1.3333333,0,682.66667)"><g
       id="g5780"><g
         id="g5782"
         clip-path="url(#clipPath5786)"><g
           id="g5788"
           transform="translate(338.945,7.5)"><path
             d="m 0,0 h -165.89 c -7.654,0 -13.859,6.205 -13.859,13.859 v 289.513 c 0,7.654 6.205,13.859 13.859,13.859 H 0 c 7.654,0 13.858,-6.205 13.858,-13.859 V 13.859 C 13.858,6.205 7.654,0 0,0"
             style="fill:#fdc352;fill-opacity:1;fill-rule:nonzero;stroke:none"
             id="path5790" /></g><g
           id="g5792"
           transform="translate(320.652,369.6909)"><path
             d="m 0,0 h -129.305 c -6.337,0 -11.473,-5.137 -11.473,-11.473 V -44.96 H 11.474 v 33.487 C 11.474,-5.137 6.337,0 0,0"
             style="fill:#fdd76f;fill-opacity:1;fill-rule:nonzero;stroke:none"
             id="path5794" /></g><g
           id="g5796"
           transform="translate(286.2458,381.7666)"><path
             d="m 0,0 h -60.492 l 16.576,111.879 c 0.924,6.236 6.277,10.854 12.581,10.854 h 2.179 c 6.303,0 11.656,-4.618 12.58,-10.854 z"
             style="fill:#fdd76f;fill-opacity:1;fill-rule:nonzero;stroke:none"
             id="path5798" /></g><g
           id="g5800"
           transform="translate(305.0798,369.6909)"><path
             d="m 0,0 h -98.159 v 19.491 c 0,5.02 4.069,9.09 9.09,9.09 H -9.09 c 5.02,0 9.09,-4.07 9.09,-9.09 z"
             style="fill:#fdc352;fill-opacity:1;fill-rule:nonzero;stroke:none"
             id="path5802" /></g><g
           id="g5804"
           transform="translate(305.3747,166.4336)"><path
             d="m 0,0 c 0,-43.625 -22.106,-78.99 -49.375,-78.99 -27.269,0 -49.374,35.365 -49.374,78.99 0,43.625 22.105,78.99 49.374,78.99 C -22.106,78.99 0,43.625 0,0"
             style="fill:#f2f5fb;fill-opacity:1;fill-rule:nonzero;stroke:none"
             id="path5806" /></g><g
           id="g5808"
           transform="translate(338.945,324.731)"><path
             d="m 0,0 h -30 c 7.654,0 13.858,-6.205 13.858,-13.859 v -289.513 c 0,-7.654 -6.204,-13.859 -13.858,-13.859 H 0 c 7.654,0 13.858,6.205 13.858,13.859 V -13.859 C 13.858,-6.205 7.654,0 0,0"
             style="fill:#edb13b;fill-opacity:1;fill-rule:nonzero;stroke:none"
             id="path5810" /></g><g
           id="g5812"
           transform="translate(320.652,369.6909)"><path
             d="m 0,0 h -30 c 6.337,0 11.474,-5.137 11.474,-11.473 V -44.96 h 30 v 33.487 C 11.474,-5.137 6.337,0 0,0"
             style="fill:#fdc352;fill-opacity:1;fill-rule:nonzero;stroke:none"
             id="path5814" /></g><g
           id="g5816"
           transform="translate(269.6696,493.646)"><path
             d="m 0,0 c -0.924,6.236 -6.276,10.854 -12.58,10.854 h -2.179 C -21.063,10.854 -26.416,6.236 -27.34,0 l -1.33,-8.978 15.246,-102.901 h 30 z"
             style="fill:#fdc352;fill-opacity:1;fill-rule:nonzero;stroke:none"
             id="path5818" /></g><g
           id="g5820"
           transform="translate(295.9899,398.2715)"><path
             d="m 0,0 h -30 c 5.02,0 9.09,-4.069 9.09,-9.09 v -19.491 h 30 V -9.09 C 9.09,-4.069 5.02,0 0,0"
             style="fill:#edb13b;fill-opacity:1;fill-rule:nonzero;stroke:none"
             id="path5822" /></g><g
           id="g5824"
           transform="translate(255.9997,245.4238)"><path
             d="m 0,0 c -5.23,0 -10.269,-1.312 -15,-3.723 19.934,-10.159 34.374,-40.011 34.374,-75.267 0,-35.257 -14.44,-65.108 -34.374,-75.267 4.731,-2.412 9.77,-3.723 15,-3.723 27.27,0 49.374,35.365 49.374,78.99 C 49.374,-35.365 27.27,0 0,0"
             style="fill:#e6e8f0;fill-opacity:1;fill-rule:nonzero;stroke:none"
             id="path5826" /></g><g
           id="g5828"
           transform="translate(352.8034,41.1274)"><path
             d="m 0,0 v -19.769 c 0,-7.654 -6.204,-13.858 -13.858,-13.858 h -165.89 c -7.654,0 -13.859,6.204 -13.859,13.858 v 191.838"
             style="fill:none;stroke:#000000;stroke-width:15;stroke-linecap:round;stroke-linejoin:round;stroke-miterlimit:10;stroke-dasharray:none;stroke-opacity:1"
             id="path5830" /></g><g
           id="g5832"
           transform="translate(159.196,243.1963)"><path
             d="m 0,0 v 67.676 c 0,7.654 6.205,13.859 13.859,13.859 h 165.89 c 7.654,0 13.858,-6.205 13.858,-13.859 v -239.745"
             style="fill:none;stroke:#000000;stroke-width:15;stroke-linecap:round;stroke-linejoin:round;stroke-miterlimit:10;stroke-dasharray:none;stroke-opacity:1"
             id="path5834" /></g><g
           id="g5836"
           transform="translate(332.1257,329.8999)"><path
             d="m 0,0 v 28.318 c 0,6.336 -5.137,11.473 -11.474,11.473 h -129.304 c -6.337,0 -11.474,-5.137 -11.474,-11.473 v -28.8"
             style="fill:none;stroke:#000000;stroke-width:15;stroke-linecap:round;stroke-linejoin:round;stroke-miterlimit:10;stroke-dasharray:none;stroke-opacity:1"
             id="path5838" /></g><g
           id="g5840"
           transform="translate(228.9362,403.2446)"><path
             d="m 0,0 13.394,90.401 c 0.923,6.236 6.277,10.854 12.581,10.854 h 2.178 c 6.304,0 11.657,-4.618 12.58,-10.854 L 53.979,0.997"
             style="fill:none;stroke:#000000;stroke-width:15;stroke-linecap:round;stroke-linejoin:round;stroke-miterlimit:10;stroke-dasharray:none;stroke-opacity:1"
             id="path5842" /></g><g
           id="g5844"
           transform="translate(305.0798,369.6909)"><path
             d="m 0,0 h -98.159 v 19.491 c 0,5.02 4.069,9.09 9.09,9.09 H -9.09 c 5.02,0 9.09,-4.07 9.09,-9.09 z"
             style="fill:none;stroke:#000000;stroke-width:15;stroke-linecap:round;stroke-linejoin:round;stroke-miterlimit:10;stroke-dasharray:none;stroke-opacity:1"
             id="path5846" /></g><g
           id="g5848"
           transform="translate(308.0583,188.8892)"><path
             d="M 0,0 43.745,24.312"
             style="fill:none;stroke:#000000;stroke-width:15;stroke-linecap:round;stroke-linejoin:round;stroke-miterlimit:10;stroke-dasharray:none;stroke-opacity:1"
             id="path5850" /></g><g
           id="g5852"
           transform="translate(160.196,106.7129)"><path
             d="M 0,0 47.577,26.441"
             style="fill:none;stroke:#000000;stroke-width:15;stroke-linecap:round;stroke-linejoin:round;stroke-miterlimit:10;stroke-dasharray:none;stroke-opacity:1"
             id="path5854" /></g><g
           id="g5856"
           transform="translate(305.3747,166.4336)"><path
             d="m 0,0 c 0,-43.625 -22.106,-78.99 -49.375,-78.99 -27.269,0 -49.374,35.365 -49.374,78.99 0,43.625 22.105,78.99 49.374,78.99 C -22.106,78.99 0,43.625 0,0 Z"
             style="fill:none;stroke:#000000;stroke-width:15;stroke-linecap:round;stroke-linejoin:round;stroke-miterlimit:10;stroke-dasharray:none;stroke-opacity:1"
             id="path5858" /></g><g
           id="g5860"
           transform="translate(255.9997,190.0132)"><path
             d="M 0,0 V -37.877"
             style="fill:none;stroke:#000000;stroke-width:15;stroke-linecap:round;stroke-linejoin:round;stroke-miterlimit:10;stroke-dasharray:none;stroke-opacity:1"
             id="path5862" /></g></g></g></g></svg>
