<?xml version="1.0" encoding="UTF-8" standalone="no"?>
<!-- Created with Inkscape (http://www.inkscape.org/) -->

<svg
   version="1.1"
   id="svg5466"
   xml:space="preserve"
   width="682.66669"
   height="682.66669"
   viewBox="0 0 682.66669 682.66669"
   xmlns="http://www.w3.org/2000/svg"
   xmlns:svg="http://www.w3.org/2000/svg"><defs
     id="defs5470"><clipPath
       clipPathUnits="userSpaceOnUse"
       id="clipPath5480"><path
         d="M 0,512 H 512 V 0 H 0 Z"
         id="path5478" /></clipPath></defs><g
     id="g5472"
     transform="matrix(1.3333333,0,0,-1.3333333,0,682.66667)"><g
       id="g5474"><g
         id="g5476"
         clip-path="url(#clipPath5480)"><g
           id="g5482"
           transform="translate(475.8474,105.6519)"><path
             d="m 0,0 -142.324,171.174 c -10.728,12.902 -16.601,29.152 -16.601,45.931 V 346.326 H -280.77 V 217.105 c 0,-16.779 -5.873,-33.029 -16.601,-45.931 L -439.695,0 c -11.399,-13.71 -16.095,-31.788 -12.809,-49.313 5.31,-28.318 30.036,-48.839 58.847,-48.839 h 347.619 c 28.811,0 53.538,20.521 58.848,48.839 C 16.095,-31.788 11.399,-13.71 0,0"
             style="fill:#f2f5fb;fill-opacity:1;fill-rule:nonzero;stroke:none"
             id="path5484" /></g><g
           id="g5486"
           transform="translate(333.4284,451.9775)"><path
             d="m 0,0 h -154.857 c -3.008,0 -5.446,2.438 -5.446,5.446 v 41.63 c 0,3.008 2.438,5.446 5.446,5.446 H 0 c 3.008,0 5.446,-2.438 5.446,-5.446 V 5.446 C 5.446,2.438 3.008,0 0,0"
             style="fill:#ccd8f3;fill-opacity:1;fill-rule:nonzero;stroke:none"
             id="path5488" /></g><g
           id="g5490"
           transform="translate(333.8864,214.6167)"><path
             d="m 0,0 c -1.739,2.091 -4.643,2.794 -7.146,1.731 -15.592,-6.623 -31.214,-13.161 -47.598,-17.589 -33.668,-9.101 -65.944,1.69 -97.064,13.983 -2.479,0.979 -5.305,0.263 -7.009,-1.786 l -108.55,-130.553 c -3.999,-4.809 -5.566,-11.134 -4.261,-17.274 2.024,-9.524 10.75,-16.136 20.485,-16.136 h 346.51 c 9.735,0 18.461,6.609 20.488,16.131 1.307,6.141 -0.261,12.468 -4.261,17.279 z"
             style="fill:#aae1fd;fill-opacity:1;fill-rule:nonzero;stroke:none"
             id="path5492" /></g><g
           id="g5494"
           transform="translate(475.8474,105.6519)"><path
             d="m 0,0 -142.324,171.174 c -10.728,12.902 -16.601,29.152 -16.601,45.931 v 129.221 h -30 V 217.105 c 0,-16.779 5.873,-33.029 16.601,-45.931 L -30,0 c 11.399,-13.71 16.095,-31.788 12.81,-49.313 -5.31,-28.318 -30.037,-48.839 -58.848,-48.839 h 30 c 28.811,0 53.538,20.521 58.848,48.839 C 16.095,-31.788 11.399,-13.71 0,0"
             style="fill:#e6e8f0;fill-opacity:1;fill-rule:nonzero;stroke:none"
             id="path5496" /></g><g
           id="g5498"
           transform="translate(333.4284,504.5)"><path
             d="m 0,0 h -30 c 3.007,0 5.446,-2.438 5.446,-5.446 v -41.63 c 0,-3.008 -2.439,-5.446 -5.446,-5.446 H 0 c 3.007,0 5.446,2.438 5.446,5.446 v 41.63 C 5.446,-2.438 3.007,0 0,0"
             style="fill:#b4c7f3;fill-opacity:1;fill-rule:nonzero;stroke:none"
             id="path5500" /></g><g
           id="g5502"
           transform="translate(445.4802,80.4023)"><path
             d="m 0,0 -111.594,134.214 c -1.739,2.092 -4.642,2.795 -7.145,1.731 -6.003,-2.549 -12.011,-5.083 -18.065,-7.492 L -30,0 c 4,-4.811 5.568,-11.138 4.261,-17.278 -2.027,-9.522 -10.753,-16.131 -20.488,-16.131 h 30 c 9.735,0 18.461,6.609 20.488,16.131 C 5.568,-11.138 4,-4.811 0,0"
             style="fill:#8fd2f1;fill-opacity:1;fill-rule:nonzero;stroke:none"
             id="path5504" /></g><g
           id="g5506"
           transform="translate(195.6257,109.416)"><path
             d="m 0,0 c 0,-4.142 -3.358,-7.5 -7.5,-7.5 -4.143,0 -7.5,3.358 -7.5,7.5 0,4.142 3.357,7.5 7.5,7.5 C -3.358,7.5 0,4.142 0,0"
             style="fill:#000000;fill-opacity:1;fill-rule:nonzero;stroke:none"
             id="path5508" /></g><g
           id="g5510"
           transform="translate(145.8987,109.416)"><path
             d="m 0,0 c 0,-4.142 -3.358,-7.5 -7.5,-7.5 -4.142,0 -7.5,3.358 -7.5,7.5 0,4.142 3.358,7.5 7.5,7.5 C -3.358,7.5 0,4.142 0,0"
             style="fill:#000000;fill-opacity:1;fill-rule:nonzero;stroke:none"
             id="path5512" /></g><g
           id="g5514"
           transform="translate(388.6018,92.9805)"><path
             d="m 0,0 c 0,-4.142 -3.358,-7.5 -7.5,-7.5 -4.143,0 -7.5,3.358 -7.5,7.5 0,4.142 3.357,7.5 7.5,7.5 C -3.358,7.5 0,4.142 0,0"
             style="fill:#000000;fill-opacity:1;fill-rule:nonzero;stroke:none"
             id="path5516" /></g><g
           id="g5518"
           transform="translate(188.1257,159.5317)"><path
             d="m 0,0 c 0,-4.142 -3.358,-7.5 -7.5,-7.5 -4.143,0 -7.5,3.358 -7.5,7.5 0,4.142 3.357,7.5 7.5,7.5 C -3.358,7.5 0,4.142 0,0"
             style="fill:#000000;fill-opacity:1;fill-rule:nonzero;stroke:none"
             id="path5520" /></g><g
           id="g5522"
           transform="translate(195.0774,369.5337)"><path
             d="m 0,0 v -46.777 c 0,-16.779 -5.873,-33.029 -16.601,-45.931 l -142.324,-171.174 c -11.399,-13.71 -16.095,-31.788 -12.809,-49.312 5.31,-28.319 30.036,-48.84 58.847,-48.84 h 347.619 c 28.811,0 53.538,20.521 58.848,48.84 3.285,17.524 -1.411,35.602 -12.81,49.312 L 138.446,-92.708 c -10.728,12.902 -16.601,29.152 -16.601,45.931 v 125.67"
             style="fill:none;stroke:#000000;stroke-width:15;stroke-linecap:round;stroke-linejoin:round;stroke-miterlimit:10;stroke-dasharray:none;stroke-opacity:1"
             id="path5524" /></g><g
           id="g5526"
           transform="translate(195.0774,447.6406)"><path
             d="M 0,0 V -48.107"
             style="fill:none;stroke:#000000;stroke-width:15;stroke-linecap:round;stroke-linejoin:round;stroke-miterlimit:10;stroke-dasharray:none;stroke-opacity:1"
             id="path5528" /></g><g
           id="g5530"
           transform="translate(286.0002,46.9932)"><path
             d="m 0,0 h 143.253 c 9.735,0 18.461,6.609 20.488,16.131 1.307,6.14 -0.261,12.467 -4.261,17.278 L 47.886,167.624 c -1.739,2.091 -4.642,2.794 -7.145,1.73 -15.593,-6.622 -31.215,-13.16 -47.599,-17.589 -33.668,-9.1 -65.944,1.69 -97.064,13.983 -2.479,0.98 -5.305,0.264 -7.009,-1.786 L -219.48,33.409 C -223.479,28.6 -225.047,22.276 -223.742,16.136 -221.718,6.612 -212.992,0 -203.256,0 H -30"
             style="fill:none;stroke:#000000;stroke-width:15;stroke-linecap:round;stroke-linejoin:round;stroke-miterlimit:10;stroke-dasharray:none;stroke-opacity:1"
             id="path5532" /></g><g
           id="g5534"
           transform="translate(333.4284,451.9775)"><path
             d="m 0,0 h -154.857 c -3.008,0 -5.446,2.438 -5.446,5.446 v 41.63 c 0,3.008 2.438,5.446 5.446,5.446 H 0 c 3.008,0 5.446,-2.438 5.446,-5.446 V 5.446 C 5.446,2.438 3.008,0 0,0 Z"
             style="fill:none;stroke:#000000;stroke-width:15;stroke-linecap:round;stroke-linejoin:round;stroke-miterlimit:10;stroke-dasharray:none;stroke-opacity:1"
             id="path5536" /></g></g></g></g></svg>
