<?xml version="1.0" encoding="UTF-8" standalone="no"?>
<!-- Created with Inkscape (http://www.inkscape.org/) -->

<svg
   version="1.1"
   id="svg1932"
   xml:space="preserve"
   width="682.66669"
   height="682.66669"
   viewBox="0 0 682.66669 682.66669"
   xmlns="http://www.w3.org/2000/svg"
   xmlns:svg="http://www.w3.org/2000/svg"><defs
     id="defs1936"><clipPath
       clipPathUnits="userSpaceOnUse"
       id="clipPath1946"><path
         d="M 0,512 H 512 V 0 H 0 Z"
         id="path1944" /></clipPath></defs><g
     id="g1938"
     transform="matrix(1.3333333,0,0,-1.3333333,0,682.66667)"><g
       id="g1940"><g
         id="g1942"
         clip-path="url(#clipPath1946)"><g
           id="g1948"
           transform="translate(269.819,388.6064)"><path
             d="M 0,0 V 16.486 C 0,57.727 -33.433,91.16 -74.674,91.16 h -29.53 c -3.304,0 -5.982,-2.679 -5.982,-5.982 V 68.691 c 0,-41.24 33.432,-74.672 74.673,-74.672 H -5.982 C -2.679,-5.981 0,-3.304 0,0"
             style="fill:#fdd76f;fill-opacity:1;fill-rule:nonzero;stroke:none"
             id="path1950" /></g><g
           id="g1952"
           transform="translate(269.819,328.6099)"><path
             d="M 0,0 V 16.486 C 0,57.727 -33.433,91.16 -74.674,91.16 h -29.53 c -3.304,0 -5.982,-2.679 -5.982,-5.982 V 68.691 c 0,-41.24 33.432,-74.672 74.673,-74.672 H -5.982 C -2.679,-5.981 0,-3.304 0,0"
             style="fill:#fdd76f;fill-opacity:1;fill-rule:nonzero;stroke:none"
             id="path1954" /></g><g
           id="g1956"
           transform="translate(195.1452,419.7695)"><path
             d="m 0,0 h -29.53 c -0.053,0 -0.105,-0.007 -0.157,-0.008 41.096,-0.17 74.361,-33.529 74.361,-74.665 V -91.16 c 0,-3.251 -2.595,-5.889 -5.825,-5.973 0.104,-0.001 0.208,-0.008 0.312,-0.008 h 29.53 c 3.304,0 5.983,2.678 5.983,5.981 v 16.487 C 74.674,-33.433 41.241,0 0,0"
             style="fill:#fdc352;fill-opacity:1;fill-rule:nonzero;stroke:none"
             id="path1958" /></g><g
           id="g1960"
           transform="translate(269.819,267.3437)"><path
             d="M 0,0 V 16.486 C 0,57.728 -33.433,91.16 -74.674,91.16 h -29.53 c -3.304,0 -5.982,-2.679 -5.982,-5.982 V 68.691 c 0,-41.24 33.432,-74.672 74.673,-74.672 H -5.982 C -2.679,-5.981 0,-3.303 0,0"
             style="fill:#fdd76f;fill-opacity:1;fill-rule:nonzero;stroke:none"
             id="path1962" /></g><g
           id="g1964"
           transform="translate(269.819,206.0776)"><path
             d="M 0,0 V 16.487 C 0,57.728 -33.433,91.16 -74.674,91.16 h -29.53 c -3.304,0 -5.982,-2.678 -5.982,-5.982 V 68.692 c 0,-41.241 33.432,-74.673 74.673,-74.673 H -5.982 C -2.679,-5.981 0,-3.303 0,0"
             style="fill:#fdd76f;fill-opacity:1;fill-rule:nonzero;stroke:none"
             id="path1966" /></g><g
           id="g1968"
           transform="translate(269.819,144.812)"><path
             d="M 0,0 V 16.486 C 0,57.727 -33.433,91.16 -74.674,91.16 h -29.53 c -3.304,0 -5.982,-2.679 -5.982,-5.982 V 68.691 c 0,-41.24 33.432,-74.672 74.673,-74.672 H -5.982 C -2.679,-5.981 0,-3.304 0,0"
             style="fill:#fdd76f;fill-opacity:1;fill-rule:nonzero;stroke:none"
             id="path1970" /></g><g
           id="g1972"
           transform="translate(269.819,83.5459)"><path
             d="M 0,0 V 16.487 C 0,57.728 -33.433,91.16 -74.674,91.16 h -29.53 c -3.304,0 -5.982,-2.678 -5.982,-5.982 V 68.691 c 0,-41.24 33.432,-74.672 74.673,-74.672 H -5.982 C -2.679,-5.981 0,-3.303 0,0"
             style="fill:#fdd76f;fill-opacity:1;fill-rule:nonzero;stroke:none"
             id="path1974" /></g><g
           id="g1976"
           transform="translate(195.1452,479.7661)"><path
             d="m 0,0 h -29.53 c -0.053,0 -0.105,-0.007 -0.157,-0.008 41.096,-0.17 74.361,-33.529 74.361,-74.665 V -91.16 c 0,-3.251 -2.595,-5.889 -5.825,-5.973 0.104,-0.001 0.208,-0.008 0.312,-0.008 h 29.53 c 3.304,0 5.983,2.678 5.983,5.981 v 16.487 C 74.674,-33.433 41.241,0 0,0"
             style="fill:#fdc352;fill-opacity:1;fill-rule:nonzero;stroke:none"
             id="path1978" /></g><g
           id="g1980"
           transform="translate(195.1452,358.5034)"><path
             d="m 0,0 h -29.53 c -0.053,0 -0.105,-0.007 -0.157,-0.008 41.096,-0.169 74.361,-33.529 74.361,-74.665 V -91.16 c 0,-3.25 -2.595,-5.889 -5.825,-5.973 0.104,0 0.208,-0.008 0.312,-0.008 h 29.53 c 3.304,0 5.983,2.678 5.983,5.981 v 16.487 C 74.674,-33.433 41.241,0 0,0"
             style="fill:#fdc352;fill-opacity:1;fill-rule:nonzero;stroke:none"
             id="path1982" /></g><g
           id="g1984"
           transform="translate(195.1452,297.2373)"><path
             d="m 0,0 h -29.53 c -0.053,0 -0.105,-0.006 -0.157,-0.008 41.096,-0.169 74.361,-33.529 74.361,-74.665 v -16.486 c 0,-3.251 -2.595,-5.89 -5.825,-5.974 0.104,0 0.208,-0.008 0.312,-0.008 h 29.53 c 3.304,0 5.983,2.678 5.983,5.982 v 16.486 C 74.674,-33.432 41.241,0 0,0"
             style="fill:#fdc352;fill-opacity:1;fill-rule:nonzero;stroke:none"
             id="path1986" /></g><g
           id="g1988"
           transform="translate(195.1452,235.9712)"><path
             d="m 0,0 h -29.53 c -0.053,0 -0.105,-0.006 -0.157,-0.008 41.096,-0.169 74.361,-33.529 74.361,-74.664 v -16.487 c 0,-3.251 -2.595,-5.89 -5.825,-5.974 0.104,0 0.208,-0.008 0.312,-0.008 h 29.53 c 3.304,0 5.983,2.678 5.983,5.982 v 16.487 C 74.674,-33.432 41.241,0 0,0"
             style="fill:#fdc352;fill-opacity:1;fill-rule:nonzero;stroke:none"
             id="path1990" /></g><g
           id="g1992"
           transform="translate(195.1452,174.7056)"><path
             d="m 0,0 h -29.53 c -0.053,0 -0.105,-0.006 -0.157,-0.008 41.096,-0.169 74.361,-33.529 74.361,-74.665 V -91.16 c 0,-3.25 -2.595,-5.889 -5.825,-5.973 0.104,-0.001 0.208,-0.008 0.312,-0.008 h 29.53 c 3.304,0 5.983,2.678 5.983,5.981 v 16.487 C 74.674,-33.432 41.241,0 0,0"
             style="fill:#fdc352;fill-opacity:1;fill-rule:nonzero;stroke:none"
             id="path1994" /></g><g
           id="g1996"
           transform="translate(245.7302,388.6064)"><path
             d="M 0,0 V 16.486 C 0,57.727 33.433,91.16 74.673,91.16 h 29.531 c 3.304,0 5.982,-2.679 5.982,-5.982 V 68.691 c 0,-41.24 -33.433,-74.672 -74.673,-74.672 H 5.981 C 2.679,-5.981 0,-3.304 0,0"
             style="fill:#fdd76f;fill-opacity:1;fill-rule:nonzero;stroke:none"
             id="path1998" /></g><g
           id="g2000"
           transform="translate(349.9343,479.7661)"><path
             d="m 0,0 h -29.531 c -0.105,0 -0.208,-0.008 -0.313,-0.008 3.231,-0.084 5.825,-2.723 5.825,-5.974 v -16.486 c 0,-41.136 -33.264,-74.496 -74.36,-74.665 0.053,-0.002 0.104,-0.008 0.156,-0.008 h 29.532 c 41.24,0 74.672,33.432 74.672,74.673 V -5.982 C 5.981,-2.678 3.304,0 0,0"
             style="fill:#fdc352;fill-opacity:1;fill-rule:nonzero;stroke:none"
             id="path2002" /></g><g
           id="g2004"
           transform="translate(245.7302,328.6099)"><path
             d="M 0,0 V 16.486 C 0,57.727 33.433,91.16 74.673,91.16 h 29.531 c 3.304,0 5.982,-2.679 5.982,-5.982 V 68.691 c 0,-41.24 -33.433,-74.672 -74.673,-74.672 H 5.981 C 2.679,-5.981 0,-3.304 0,0"
             style="fill:#fdd76f;fill-opacity:1;fill-rule:nonzero;stroke:none"
             id="path2006" /></g><g
           id="g2008"
           transform="translate(349.9343,419.7695)"><path
             d="m 0,0 h -29.531 c -0.105,0 -0.208,-0.008 -0.313,-0.008 3.231,-0.084 5.825,-2.723 5.825,-5.974 v -16.486 c 0,-41.136 -33.264,-74.496 -74.36,-74.665 0.053,-0.002 0.104,-0.008 0.156,-0.008 h 29.532 c 41.24,0 74.672,33.432 74.672,74.673 V -5.982 C 5.981,-2.678 3.304,0 0,0"
             style="fill:#fdc352;fill-opacity:1;fill-rule:nonzero;stroke:none"
             id="path2010" /></g><g
           id="g2012"
           transform="translate(245.7302,267.3437)"><path
             d="M 0,0 V 16.486 C 0,57.728 33.433,91.16 74.673,91.16 h 29.531 c 3.304,0 5.982,-2.679 5.982,-5.982 V 68.691 c 0,-41.24 -33.433,-74.672 -74.673,-74.672 H 5.981 C 2.679,-5.981 0,-3.303 0,0"
             style="fill:#fdd76f;fill-opacity:1;fill-rule:nonzero;stroke:none"
             id="path2014" /></g><g
           id="g2016"
           transform="translate(349.9343,358.5034)"><path
             d="m 0,0 h -29.531 c -0.105,0 -0.208,-0.008 -0.313,-0.008 3.231,-0.084 5.825,-2.723 5.825,-5.973 v -16.487 c 0,-41.136 -33.264,-74.496 -74.36,-74.665 0.053,-0.001 0.104,-0.008 0.156,-0.008 h 29.532 c 41.24,0 74.672,33.432 74.672,74.673 V -5.981 C 5.981,-2.678 3.304,0 0,0"
             style="fill:#fdc352;fill-opacity:1;fill-rule:nonzero;stroke:none"
             id="path2018" /></g><g
           id="g2020"
           transform="translate(245.7302,206.0776)"><path
             d="M 0,0 V 16.487 C 0,57.728 33.433,91.16 74.673,91.16 h 29.531 c 3.304,0 5.982,-2.678 5.982,-5.982 V 68.692 c 0,-41.241 -33.433,-74.673 -74.673,-74.673 H 5.981 C 2.679,-5.981 0,-3.303 0,0"
             style="fill:#fdd76f;fill-opacity:1;fill-rule:nonzero;stroke:none"
             id="path2022" /></g><g
           id="g2024"
           transform="translate(349.9343,297.2373)"><path
             d="m 0,0 h -29.531 c -0.105,0 -0.208,-0.007 -0.313,-0.008 3.231,-0.083 5.825,-2.722 5.825,-5.973 v -16.487 c 0,-41.136 -33.264,-74.495 -74.36,-74.665 0.053,-0.001 0.104,-0.008 0.156,-0.008 h 29.532 c 41.24,0 74.672,33.433 74.672,74.673 V -5.981 C 5.981,-2.678 3.304,0 0,0"
             style="fill:#fdc352;fill-opacity:1;fill-rule:nonzero;stroke:none"
             id="path2026" /></g><g
           id="g2028"
           transform="translate(245.7302,144.812)"><path
             d="M 0,0 V 16.486 C 0,57.727 33.433,91.16 74.673,91.16 h 29.531 c 3.304,0 5.982,-2.679 5.982,-5.982 V 68.691 c 0,-41.24 -33.433,-74.672 -74.673,-74.672 H 5.981 C 2.679,-5.981 0,-3.304 0,0"
             style="fill:#fdd76f;fill-opacity:1;fill-rule:nonzero;stroke:none"
             id="path2030" /></g><g
           id="g2032"
           transform="translate(349.9343,235.9712)"><path
             d="m 0,0 h -29.531 c -0.105,0 -0.208,-0.007 -0.313,-0.008 3.231,-0.084 5.825,-2.722 5.825,-5.973 v -16.487 c 0,-41.136 -33.264,-74.495 -74.36,-74.665 0.053,-0.001 0.104,-0.008 0.156,-0.008 h 29.532 c 41.24,0 74.672,33.433 74.672,74.673 V -5.981 C 5.981,-2.678 3.304,0 0,0"
             style="fill:#fdc352;fill-opacity:1;fill-rule:nonzero;stroke:none"
             id="path2034" /></g><g
           id="g2036"
           transform="translate(245.7302,83.5459)"><path
             d="M 0,0 V 16.487 C 0,57.728 33.433,91.16 74.673,91.16 h 29.531 c 3.304,0 5.982,-2.678 5.982,-5.982 V 68.691 c 0,-41.24 -33.433,-74.672 -74.673,-74.672 H 5.981 C 2.679,-5.981 0,-3.303 0,0"
             style="fill:#fdd76f;fill-opacity:1;fill-rule:nonzero;stroke:none"
             id="path2038" /></g><g
           id="g2040"
           transform="translate(349.9343,174.7056)"><path
             d="m 0,0 h -29.531 c -0.105,0 -0.208,-0.007 -0.313,-0.008 3.231,-0.084 5.825,-2.723 5.825,-5.973 v -16.487 c 0,-41.136 -33.264,-74.496 -74.36,-74.665 0.053,-0.002 0.104,-0.008 0.156,-0.008 h 29.532 c 41.24,0 74.672,33.432 74.672,74.673 V -5.981 C 5.981,-2.678 3.304,0 0,0"
             style="fill:#fdc352;fill-opacity:1;fill-rule:nonzero;stroke:none"
             id="path2042" /></g><g
           id="g2044"
           transform="translate(255.9997,73.0869)"><path
             d="M 0,0 V -65.587"
             style="fill:none;stroke:#000000;stroke-width:15;stroke-linecap:round;stroke-linejoin:round;stroke-miterlimit:10;stroke-dasharray:none;stroke-opacity:1"
             id="path2046" /></g><g
           id="g2048"
           transform="translate(255.9997,504.5)"><path
             d="M 0,0 V -61.597"
             style="fill:none;stroke:#000000;stroke-width:15;stroke-linecap:round;stroke-linejoin:round;stroke-miterlimit:10;stroke-dasharray:none;stroke-opacity:1"
             id="path2050" /></g><g
           id="g2052"
           transform="translate(165.1452,479.7661)"><path
             d="m 0,0 h 0.47 c -3.304,0 -5.982,-2.678 -5.982,-5.982 v -16.486 c 0,-12.696 3.168,-24.651 8.756,-35.118"
             style="fill:none;stroke:#000000;stroke-width:15;stroke-linecap:round;stroke-linejoin:round;stroke-miterlimit:10;stroke-dasharray:none;stroke-opacity:1"
             id="path2054" /></g><g
           id="g2056"
           transform="translate(257.778,445.7686)"><path
             d="M 0,0 C -13.318,20.465 -36.395,33.998 -62.633,33.998"
             style="fill:none;stroke:#000000;stroke-width:15;stroke-linecap:round;stroke-linejoin:round;stroke-miterlimit:10;stroke-dasharray:none;stroke-opacity:1"
             id="path2058" /></g><g
           id="g2060"
           transform="translate(245.7302,400.02)"><path
             d="m 0,0 v 5.073 c 0,41.24 33.433,74.673 74.673,74.673 h 29.531 c 3.304,0 5.982,-2.678 5.982,-5.982 V 57.278 c 0,-13.682 -3.68,-26.505 -10.104,-37.532"
             style="fill:none;stroke:#000000;stroke-width:15;stroke-linecap:round;stroke-linejoin:round;stroke-miterlimit:10;stroke-dasharray:none;stroke-opacity:1"
             id="path2062" /></g><g
           id="g2064"
           transform="translate(257.777,385.7744)"><path
             d="m 0,0 c -13.318,20.464 -36.395,33.995 -62.632,33.995 h -29.53 c -3.304,0 -5.982,-2.678 -5.982,-5.982 V 11.527 c 0,-12.847 3.245,-24.937 8.959,-35.494"
             style="fill:none;stroke:#000000;stroke-width:15;stroke-linecap:round;stroke-linejoin:round;stroke-miterlimit:10;stroke-dasharray:none;stroke-opacity:1"
             id="path2066" /></g><g
           id="g2068"
           transform="translate(245.7302,341.8115)"><path
             d="m 0,0 v 3.285 c 0,41.24 33.433,74.673 74.673,74.673 h 29.531 c 3.304,0 5.982,-2.678 5.982,-5.982 V 55.49 c 0,-14.209 -3.969,-27.491 -10.859,-38.799"
             style="fill:none;stroke:#000000;stroke-width:15;stroke-linecap:round;stroke-linejoin:round;stroke-miterlimit:10;stroke-dasharray:none;stroke-opacity:1"
             id="path2070" /></g><g
           id="g2072"
           transform="translate(257.7809,324.502)"><path
             d="m 0,0 c -13.318,20.468 -36.396,34.001 -62.636,34.001 h -29.53 c -3.304,0 -5.981,-2.678 -5.981,-5.981 V 11.533 c 0,-14.07 3.891,-27.231 10.656,-38.466"
             style="fill:none;stroke:#000000;stroke-width:15;stroke-linecap:round;stroke-linejoin:round;stroke-miterlimit:10;stroke-dasharray:none;stroke-opacity:1"
             id="path2074" /></g><g
           id="g2076"
           transform="translate(245.7302,278.9297)"><path
             d="m 0,0 v 4.9 c 0,41.242 33.433,74.674 74.673,74.674 h 29.531 c 3.304,0 5.982,-2.678 5.982,-5.982 V 57.105 c 0,-13.313 -3.485,-25.813 -9.591,-36.636"
             style="fill:none;stroke:#000000;stroke-width:15;stroke-linecap:round;stroke-linejoin:round;stroke-miterlimit:10;stroke-dasharray:none;stroke-opacity:1"
             id="path2078" /></g><g
           id="g2080"
           transform="translate(256.3327,265.3794)"><path
             d="m 0,0 c -13.505,19.264 -35.875,31.858 -61.187,31.858 h -29.531 c -3.303,0 -5.981,-2.678 -5.981,-5.982 V 9.39 c 0,-13.683 3.68,-26.507 10.105,-37.536"
             style="fill:none;stroke:#000000;stroke-width:15;stroke-linecap:round;stroke-linejoin:round;stroke-miterlimit:10;stroke-dasharray:none;stroke-opacity:1"
             id="path2082" /></g><g
           id="g2084"
           transform="translate(245.7302,216.2222)"><path
             d="m 0,0 v 6.342 c 0,41.241 33.433,74.673 74.673,74.673 h 29.531 c 3.304,0 5.982,-2.678 5.982,-5.981 V 58.547 c 0,-13.953 -3.828,-27.012 -10.489,-38.185"
             style="fill:none;stroke:#000000;stroke-width:15;stroke-linecap:round;stroke-linejoin:round;stroke-miterlimit:10;stroke-dasharray:none;stroke-opacity:1"
             id="path2086" /></g><g
           id="g2088"
           transform="translate(257.1686,202.8955)"><path
             d="m 0,0 c -13.405,19.949 -36.182,33.076 -62.023,33.076 h -29.531 c -3.303,0 -5.981,-2.678 -5.981,-5.981 V 10.608 c 0,-13.681 3.68,-26.504 10.102,-37.531"
             style="fill:none;stroke:#000000;stroke-width:15;stroke-linecap:round;stroke-linejoin:round;stroke-miterlimit:10;stroke-dasharray:none;stroke-opacity:1"
             id="path2090" /></g><g
           id="g2092"
           transform="translate(310.4206,235.3101)"><path
             d="m 0,0 c 3.266,0.436 6.598,0.662 9.982,0.662 h 29.532 c 3.303,0 5.981,-2.679 5.981,-5.982 v -16.487 c 0,-13.682 -3.68,-26.505 -10.103,-37.532"
             style="fill:none;stroke:#000000;stroke-width:15;stroke-linecap:round;stroke-linejoin:round;stroke-miterlimit:10;stroke-dasharray:none;stroke-opacity:1"
             id="path2094" /></g><g
           id="g2096"
           transform="translate(245.7302,158.5151)"><path
             d="m 0,0 v 2.783 c 0,27.701 15.084,51.88 37.485,64.769"
             style="fill:none;stroke:#000000;stroke-width:15;stroke-linecap:round;stroke-linejoin:round;stroke-miterlimit:10;stroke-dasharray:none;stroke-opacity:1"
             id="path2098" /></g><g
           id="g2100"
           transform="translate(256.3366,142.8428)"><path
             d="m 0,0 c -13.505,19.267 -35.877,31.863 -61.191,31.863 h -29.531 c -3.303,0 -5.981,-2.678 -5.981,-5.982 V 9.395 c 0,-41.241 33.432,-74.673 74.673,-74.673 h 17.405"
             style="fill:none;stroke:#000000;stroke-width:15;stroke-linecap:round;stroke-linejoin:round;stroke-miterlimit:10;stroke-dasharray:none;stroke-opacity:1"
             id="path2102" /></g><g
           id="g2104"
           transform="translate(245.7302,83.5459)"><path
             d="M 0,0 V 16.487 C 0,57.728 33.433,91.16 74.673,91.16 h 29.531 c 3.304,0 5.982,-2.678 5.982,-5.982 V 68.691 c 0,-41.24 -33.433,-74.672 -74.673,-74.672 H 5.981 C 2.679,-5.981 0,-3.303 0,0 Z"
             style="fill:none;stroke:#000000;stroke-width:15;stroke-linecap:round;stroke-linejoin:round;stroke-miterlimit:10;stroke-dasharray:none;stroke-opacity:1"
             id="path2106" /></g><g
           id="g2108"
           transform="translate(169.739,419.7695)"><path
             d="M 0,0 H -31.011"
             style="fill:none;stroke:#000000;stroke-width:15;stroke-linecap:round;stroke-linejoin:round;stroke-miterlimit:10;stroke-dasharray:none;stroke-opacity:1"
             id="path2110" /></g><g
           id="g2112"
           transform="translate(169.739,358.5034)"><path
             d="M 0,0 H -31.011"
             style="fill:none;stroke:#000000;stroke-width:15;stroke-linecap:round;stroke-linejoin:round;stroke-miterlimit:10;stroke-dasharray:none;stroke-opacity:1"
             id="path2114" /></g><g
           id="g2116"
           transform="translate(169.739,297.2373)"><path
             d="M 0,0 H -31.011"
             style="fill:none;stroke:#000000;stroke-width:15;stroke-linecap:round;stroke-linejoin:round;stroke-miterlimit:10;stroke-dasharray:none;stroke-opacity:1"
             id="path2118" /></g><g
           id="g2120"
           transform="translate(169.739,235.9717)"><path
             d="M 0,0 H -31.011"
             style="fill:none;stroke:#000000;stroke-width:15;stroke-linecap:round;stroke-linejoin:round;stroke-miterlimit:10;stroke-dasharray:none;stroke-opacity:1"
             id="path2122" /></g><g
           id="g2124"
           transform="translate(169.739,174.7056)"><path
             d="M 0,0 H -31.011"
             style="fill:none;stroke:#000000;stroke-width:15;stroke-linecap:round;stroke-linejoin:round;stroke-miterlimit:10;stroke-dasharray:none;stroke-opacity:1"
             id="path2126" /></g><g
           id="g2128"
           transform="translate(373.2712,419.7695)"><path
             d="M 0,0 H -31.011"
             style="fill:none;stroke:#000000;stroke-width:15;stroke-linecap:round;stroke-linejoin:round;stroke-miterlimit:10;stroke-dasharray:none;stroke-opacity:1"
             id="path2130" /></g><g
           id="g2132"
           transform="translate(373.2712,358.5034)"><path
             d="M 0,0 H -31.011"
             style="fill:none;stroke:#000000;stroke-width:15;stroke-linecap:round;stroke-linejoin:round;stroke-miterlimit:10;stroke-dasharray:none;stroke-opacity:1"
             id="path2134" /></g><g
           id="g2136"
           transform="translate(373.2712,297.2373)"><path
             d="M 0,0 H -31.011"
             style="fill:none;stroke:#000000;stroke-width:15;stroke-linecap:round;stroke-linejoin:round;stroke-miterlimit:10;stroke-dasharray:none;stroke-opacity:1"
             id="path2138" /></g><g
           id="g2140"
           transform="translate(373.2712,235.9717)"><path
             d="M 0,0 H -31.011"
             style="fill:none;stroke:#000000;stroke-width:15;stroke-linecap:round;stroke-linejoin:round;stroke-miterlimit:10;stroke-dasharray:none;stroke-opacity:1"
             id="path2142" /></g><g
           id="g2144"
           transform="translate(373.2712,174.7056)"><path
             d="M 0,0 H -31.011"
             style="fill:none;stroke:#000000;stroke-width:15;stroke-linecap:round;stroke-linejoin:round;stroke-miterlimit:10;stroke-dasharray:none;stroke-opacity:1"
             id="path2146" /></g></g></g></g></svg>
