<svg id="Capa_1" enable-background="new 0 0 512.008 512.008" height="512" viewBox="0 0 512.008 512.008" width="512" xmlns="http://www.w3.org/2000/svg"><g><g><path d="m159.363 193.197s12.19-49.702 38.027-70.261c2.124-1.69 5.045-1.966 7.476-.759 17.699 8.781 90.356 46.958 89.028 81.349l-99.409 33.963z" fill="#6483b1"/></g><g><path d="m204.866 122.177c-2.432-1.206-5.352-.931-7.476.759-2.64 2.101-5.135 4.509-7.491 7.134 27.463 15.167 75.073 45.557 73.995 73.456l-75.804 25.898 6.395 8.064 99.409-33.963c1.328-34.389-71.328-72.567-89.028-81.348z" fill="#5b77a1"/></g><g><path d="m165.376 342.07s8.238 33.591 25.7 47.486c1.436 1.142 3.409 1.329 5.053.513 11.962-5.935 61.067-31.737 60.17-54.979l-67.186-22.954z" fill="#6483b1"/></g><g><path d="m499.299 294.049c-8.143-13.233-20.714-23.298-35.406-29.619 14.692-6.321 27.263-16.386 35.406-29.619l3.865-6.281c3.035-4.933.721-10.992-5.169-13.534-34.482-14.882-76.841-3.536-94.611 25.341l-14.794 24.041.123.053-.123.053 14.794 24.041c17.77 28.877 60.129 40.222 94.611 25.341 5.89-2.542 8.204-8.601 5.169-13.534z" fill="#6483b1"/></g><g><ellipse cx="215.695" cy="266.872" fill="#b6ddfc" rx="208.195" ry="81.108"/></g><g><path d="m297.798 266.872c0-10.372 23.546-30.788 61.54-48.543-11.814-5.524-24.945-10.811-39.147-15.457-60.532 19.489-101.032 50.392-101.032 64s40.499 44.51 101.032 64c14.202-4.646 27.333-9.933 39.147-15.457-37.994-17.755-61.54-38.171-61.54-48.543z" fill="#6483b1"/></g><g><path d="m297.798 266.872c0-10.372 23.546-30.788 61.54-48.543-11.814-5.524-24.945-10.811-39.147-15.457-5.188 1.671-10.226 3.426-15.107 5.247-20.472 20.472-42.98 48.381-42.98 58.753s24.509 40.282 42.98 58.753c4.881 1.82 9.918 3.576 15.107 5.247 14.202-4.647 27.333-9.933 39.147-15.457-37.994-17.754-61.54-38.171-61.54-48.543z" fill="#5b77a1"/></g><g><path d="m423.891 266.872c0-8.66-24.786-29.949-64.553-48.543-37.994 17.755-61.54 38.171-61.54 48.543s23.546 30.788 61.54 48.543c39.767-18.594 64.553-39.882 64.553-48.543z" fill="#b6ddfc"/></g><g><path d="m359.338 218.33c-5.28 2.467-10.27 4.986-14.967 7.523 30.877 16.508 49.52 33.511 49.52 41.02s-18.643 24.512-49.52 41.02c4.698 2.536 9.687 5.055 14.967 7.523 39.767-18.594 64.553-39.882 64.553-48.543s-24.786-29.949-64.553-48.543z" fill="#8fd2f1"/></g><g><path d="m102.899 255.534c0-4.43-3.591-8.021-8.021-8.021s-8.021 3.59-8.021 8.021c0 4.43 3.591 8.021 8.021 8.021s8.021-3.591 8.021-8.021z"/><path d="m509.552 296.399-3.865-6.281c-6.283-10.209-15.041-18.926-25.726-25.689 10.685-6.763 19.443-15.479 25.726-25.688l3.865-6.281c2.522-4.098 3.125-8.842 1.699-13.357-1.523-4.823-5.271-8.83-10.284-10.994-18.221-7.863-38.991-9.32-58.484-4.097-17.934 4.803-32.895 14.758-42.686 28.249-9.864-6.567-21.396-13.096-33.626-18.997-14.852-7.165-38.276-16.986-67.568-24.404-5.794-14.516-20.832-30.227-44.718-46.701-18.812-12.975-38.216-22.995-45.687-26.701-5.036-2.497-11.111-1.866-15.479 1.61-21.299 16.948-33.718 51.138-38.472 66.67-32.156 5.725-58.936 15.012-78.35 23.298-3.81 1.626-5.58 6.033-3.954 9.842 1.625 3.809 6.031 5.579 9.842 3.954 29.466-12.577 76.617-27.569 133.909-27.569 29.684 0 56.947 4.432 80.164 10.377-20.228 8.02-38.893 17.602-53.864 27.749-25.074 16.994-30.337 28.676-30.337 35.482 0 6.779 5.225 18.411 30.117 35.333 15 10.197 33.757 19.837 54.087 27.898-23.218 5.945-50.482 10.378-80.168 10.378-18.564 0-36.078-1.604-52.229-4.169 8.117-10.786 13.254-23.615 14.748-37.204.453-4.117-2.518-7.822-6.635-8.275-4.118-.456-7.822 2.518-8.275 6.635-1.483 13.483-7.442 26.029-16.868 35.695-10.122-2.13-19.576-4.584-28.272-7.179 20.278-17.969 29.412-45.331 23.872-71.977-.843-4.055-4.81-6.66-8.87-5.816-4.055.843-6.659 4.814-5.816 8.87 4.564 21.954-3.295 44.518-20.51 58.886l-5.473 4.568c-11.718-4.147-21.49-8.305-28.932-11.775-17.032-7.941-32.38-17.103-43.216-25.797-11.417-9.161-14.134-14.72-14.217-16.049.132-2.172 7.484-14.772 38.977-32.45 3.612-2.027 4.897-6.599 2.869-10.211-2.027-3.612-6.6-4.896-10.211-2.869-13.406 7.525-24.78 15.466-32.892 22.967-9.248 8.549-13.743 15.923-13.743 22.542 0 18.022 35.171 40.938 65.291 55.085 18.991 8.92 52.372 22.141 94.863 29.01 3.942 12.347 12.324 33.374 26.252 44.457 2.189 1.743 4.885 2.639 7.603 2.639 1.859 0 3.729-.42 5.453-1.275 39.87-19.78 54.253-37.193 58.743-44.126 48.215-6.339 86.79-21.966 107.966-32.182 13.268-6.401 25.712-13.543 36.099-20.669 8.842 10.74 21.082 18.898 35.545 23.647.777.255 1.565.377 2.341.377 3.152 0 6.087-2.004 7.124-5.162 1.293-3.936-.85-8.173-4.786-9.465-11.508-3.779-21.211-10.118-28.212-18.402 17.099-14.166 17.108-21.471 17.108-23.933 0-2.558 0-10.342-19.189-25.626-.082-.066-.17-.132-.253-.198 16.97-23.372 53.267-32.032 83.075-19.168.997.431 1.716 1.081 1.924 1.739.076.241.108.526-.171.979l-3.865 6.281c-7.064 11.479-18.124 20.697-31.983 26.66-2.752 1.185-4.536 3.893-4.536 6.89 0 2.996 1.783 5.705 4.536 6.889 13.86 5.964 24.919 15.183 31.983 26.661l3.865 6.28c.279.454.247.739.171.98-.208.658-.927 1.308-1.924 1.738-8.277 3.572-17.167 5.552-26.421 5.884-4.14.148-7.375 3.625-7.226 7.764.146 4.048 3.472 7.231 7.49 7.231.091 0 .183-.001.274-.005 11.125-.399 21.832-2.789 31.826-7.103 5.013-2.164 8.761-6.17 10.284-10.993 1.427-4.514.824-9.258-1.698-13.357zm-338.718-115.21c6.795-19.781 17.583-41.354 30.955-52.167 7.358 3.66 25.778 13.206 43.58 25.484 15.334 10.576 26.674 20.744 33.512 29.947-19.301-3.74-40.557-6.191-63.186-6.191-15.738.002-30.734 1.093-44.861 2.927zm79.906 108.971c-17.855-12.044-23.935-20.904-24.082-23.267.148-2.42 6.278-11.335 24.286-23.446 18.381-12.362 43.254-24.084 69.12-32.669 7.988 2.667 15.23 5.398 21.625 8.014-25.678 13.813-51.391 32.855-51.391 48.08 0 15.209 25.872 34.34 51.394 48.078-6.349 2.597-13.531 5.308-21.451 7.956-25.479-8.577-51.448-20.569-69.501-32.746zm-56.342 92.388c-8.145-7.286-14.053-19.967-17.568-29.292 12.351 1.401 25.336 2.224 38.865 2.224 7.125 0 14.106-.255 20.942-.703-11.042 10.232-27.664 20.41-42.239 27.771zm221.894-115.676c-2.025 5.128-20.217 22.646-57.414 40.464-35.411-17.483-53.285-35.696-53.579-40.444.229-3.728 14.452-21.107 54.006-40.281 36.91 17.748 54.97 35.153 56.987 40.261z"/></g></g></svg>